<svg width="1440" height="1563" viewBox="0 0 1440 1563" fill="none" xmlns="http://www.w3.org/2000/svg">
<path d="M200.95 124.988C200.316 125.289 199.942 124.031 200.543 123.668C201.144 123.305 201.914 123.637 202.511 124.006C207.974 127.379 211.135 133.676 212.057 140.029C212.978 146.383 211.927 152.852 210.57 159.127C209.76 162.867 208.827 166.621 207.089 170.03C201.916 180.179 189.885 185.767 178.517 185.042C167.149 184.318 156.636 178.057 148.922 169.675" stroke="white" stroke-width="0.510638" stroke-miterlimit="0"/>
<path d="M204.623 89.5431C210.32 75.4656 216.346 60.9003 227.512 50.6069C236.106 42.6861 247.101 37.9186 256.509 30.9838C270.993 20.3089 281.241 4.8796 294.751 -7.00355C308.26 -18.8867 327.844 -27.1422 344.144 -19.5226C362.418 -10.9793 367.301 12.0321 376.701 29.8802C391.711 58.3846 422.721 79.1769 427.118 111.09C428.858 123.727 426.033 136.617 427.346 149.305C428.633 161.763 433.886 173.817 433.139 186.318C432.174 202.474 421.428 216.392 417.816 232.169C416.071 239.791 416.027 247.704 414.607 255.394C410.43 278.019 393.48 297.836 371.777 305.471C350.073 313.105 324.45 308.265 307.028 293.238" stroke="white" stroke-width="0.510638" stroke-miterlimit="0"/>
<path d="M150.329 122.915C154.754 127.511 162.222 127.242 168.33 125.401C174.439 123.561 180.353 120.468 186.733 120.497C195.346 120.536 202.744 126.167 210.275 130.345C230.623 141.632 256.234 142.893 277.592 133.659C290.03 128.283 300.79 119.714 312.609 113.087C324.428 106.46 338.3 101.713 351.445 105.001C334.773 90.1996 310.479 88.8135 288.192 88.1839L232.925 86.6226C223.338 86.352 213.371 86.1524 204.623 90.085C200.09 92.1222 196.107 95.1809 191.862 97.765M191.862 97.765C174.187 108.529 149.783 113.208 142.165 132.451C134.781 151.101 148.416 172.254 144.257 191.878L144.237 192.622C129.906 209.678 121.361 212.451 116.11 211.481C114.428 211.169 110.222 209.821 106.526 211.995C103.926 213.525 102.858 216.671 101.059 219.093C93.4472 229.343 76.688 223.89 65.2309 229.525C61.3128 231.451 58.1752 234.63 54.6229 237.172C37.8357 249.183 14.9098 245.528 -5.30635 241.356C-7.80615 240.839 -10.5122 240.203 -12.1151 238.216C-14.6803 235.036 -13.0821 230.297 -10.9953 226.786C6.18322 197.894 47.9486 188.067 59.4181 156.472C62.3096 148.506 62.8986 139.869 65.5777 131.83C69.0675 121.362 76.109 111.751 76.2111 100.719C76.3626 84.3027 60.9937 69.5631 64.7106 53.5725C69.0038 35.1079 96.4203 26.9743 96.1605 8.01805C96.0853 2.49983 93.4683 -2.62705 92.1693 -7.99117C89.401 -19.4196 93.0979 -32.1903 101.543 -40.3729C109.988 -48.5562 122.869 -51.8485 134.205 -48.7208C144.08 -45.9976 152.686 -38.8407 162.909 -38.1967C172.29 -37.605 181.019 -42.6209 190.202 -44.6249C202.918 -47.3993 216.831 -44.0314 226.872 -35.7499C229.876 -33.2708 232.654 -30.1782 233.449 -26.3653C234.093 -23.2786 233.366 -20.0885 232.589 -17.0334C223.124 20.1645 212.542 36.9384 210.217 41.4422C203.791 53.888 196.163 72.3508 191.862 97.765Z" stroke="white" stroke-width="0.510638" stroke-miterlimit="0"/>
<path d="M49.591 173.474C45.5331 169.045 42.1921 168.367 40.2662 168.346C38.9989 168.331 37.7537 167.504 29.5751 171.447C28.1217 172.147 26.6217 172.897 25.0083 172.915C16.3702 173.011 17.076 155.144 8.43834 155.284C4.76305 155.344 2.10757 159.098 -1.5121 159.731C-5.87273 160.495 -9.50291 156.648 -12.5142 153.404C-18.1547 147.33 -24.7109 142.176 -31.945 138.13C-34.4423 136.733 -37.3264 135.437 -40.0774 136.225C-42.6142 136.953 -44.3638 139.305 -45.385 141.739C-51.3144 155.88 -38.328 171.449 -40.2262 186.665C-41.1919 194.407 -43.5508 194.14 -43.6102 200.789C-43.7442 216.045 -32.2126 227.215 -29.6469 229.701C-15.6322 243.279 2.34047 243.688 6.95892 243.655" stroke="white" stroke-width="0.510638" stroke-miterlimit="0"/>
<path d="M350.347 104.057C351.468 104.717 352.5 105.518 353.417 106.441C358.411 111.487 358.453 118.857 358.405 123.412C358.229 140.022 356.44 142.91 356.894 150.043C357.609 161.264 363.594 171.338 368.296 181.552C372.996 191.765 376.509 203.686 372.194 214.068C367 226.562 352.813 232.07 341.533 239.541C325.989 249.834 314.41 265.962 309.627 283.98C307.508 291.96 306.651 300.342 303.28 307.879C299.128 317.161 291.454 324.444 283.125 330.277C275.027 335.948 257.121 346.568 211.235 349.09C192.493 350.121 165.959 349.986 134.256 344.468" stroke="white" stroke-width="0.510638" stroke-miterlimit="0"/>
<path d="M139.939 145.53C142.907 152.769 144.085 161.522 148.526 168.911C160.311 189.014 176.909 205.527 185.43 226.995C189.685 239.873 183.649 251.866 178.301 263.346C174.327 273.801 178.244 284.791 179.586 296.632C181.93 318.426 156.523 324.535 141.571 334.618C133.32 340.772 130.034 350.714 122.984 357.043C119.546 359.608 117.134 363.547 111.557 363.596M111.557 363.596C125.754 342.695 113.792 363.215 111.557 363.596ZM111.557 363.596C125.754 342.695 130.48 313.948 122.104 289.88C117.975 278.018 108.814 264.56 113.822 251.601C115.492 247.279 118.282 243.893 121.502 240.869C128.411 234.378 130.871 234.282 136.372 227.956C139.809 224.004 144.666 218.417 144.24 211.076C143.9 205.215 140.35 200.968 138.481 199.043" stroke="white" stroke-width="0.510638" stroke-miterlimit="0"/>
<path d="M185.103 199.363C192.002 201.609 196.308 208.63 198.108 215.659C199.909 222.686 199.803 230.064 201.153 237.193C204.476 254.746 217.209 270.225 233.792 276.87" stroke="white" stroke-width="0.510638" stroke-miterlimit="0"/>
<path d="M171.922 94.885C166.649 91.868 166.132 84.5313 166.797 78.4924C168.005 67.5577 170.963 56.8883 175.557 46.8924C179.229 38.9088 183.961 31.3106 186.113 22.7906C188.263 14.2712 187.275 4.23016 180.857 -1.77173" stroke="white" stroke-width="0.510638" stroke-miterlimit="0"/>
<path d="M131.519 141.439C125.278 144.572 123.539 152.647 123.556 159.629C123.572 166.612 124.498 174.091 121.013 180.142C118.259 184.925 113.244 187.875 108.449 190.609L74.1176 210.187" stroke="white" stroke-width="0.510638" stroke-miterlimit="0"/>
<path d="M229.15 76.675C228.397 68.4017 235.347 61.2619 242.896 57.7934C250.445 54.3251 258.915 53.2551 266.489 49.8413C277.043 45.0843 285.398 35.6762 288.873 24.6335" stroke="white" stroke-width="0.510638" stroke-miterlimit="0"/>
<path d="M151.43 194.308C152.652 204.777 162.508 211.781 167.897 220.84C172.379 228.376 173.716 237.718 171.526 246.208" stroke="white" stroke-width="0.510638" stroke-miterlimit="0"/>
<path d="M183.864 111.963C190.679 109.846 197.758 108.697 204.893 108.55C208.143 108.484 211.529 108.662 214.392 110.202C217.668 111.966 219.785 115.241 222.168 118.097C230.409 127.977 243.398 133.705 256.25 133.126" stroke="white" stroke-width="0.510638" stroke-miterlimit="0"/>
<path d="M-10.5839 222.791C-18.1524 216.608 -20.102 205.86 -20.0404 196.088C-19.9794 186.314 -18.4612 176.313 -21.1509 166.918" stroke="white" stroke-width="0.510638" stroke-miterlimit="0"/>
<path d="M219.368 147.094C222.798 150.502 228.064 151.312 232.885 150.953C237.707 150.594 242.43 149.257 247.263 149.106C255.75 148.84 263.876 152.218 271.692 155.535L290.248 163.409" stroke="white" stroke-width="0.510638" stroke-miterlimit="0"/>
<path d="M1288.26 230.777C1287.85 229.868 1289.65 229.362 1290.15 230.225C1290.65 231.087 1290.17 232.176 1289.63 233.018C1284.72 240.72 1275.7 245.086 1266.64 246.267C1257.58 247.446 1248.4 245.819 1239.5 243.759C1234.2 242.53 1228.88 241.126 1224.06 238.583C1209.73 231.016 1202.03 213.786 1203.3 197.63C1204.56 181.473 1213.68 166.648 1225.77 155.847" stroke="white" stroke-width="0.510638" stroke-miterlimit="0"/>
<path d="M1338.61 236.73C1358.52 245.124 1379.11 253.997 1393.53 270.093C1404.62 282.48 1411.17 298.219 1420.84 311.744C1435.73 332.567 1457.47 347.463 1474.09 366.925C1490.72 386.387 1502.06 414.415 1490.88 437.444C1478.36 463.264 1445.52 469.737 1419.94 482.74C1379.08 503.507 1348.87 547.19 1303.38 552.788C1285.37 555.004 1267.09 550.719 1249.01 552.326C1231.27 553.901 1214.01 561.125 1196.24 559.805C1173.28 558.099 1153.7 542.528 1131.33 537.064C1120.53 534.425 1109.27 534.199 1098.36 532.022C1066.27 525.615 1038.42 501.095 1028.01 470.065C1017.6 439.034 1025.01 402.684 1046.74 378.211" stroke="white" stroke-width="0.510638" stroke-miterlimit="0"/>
<path d="M1292.25 158.812C1285.62 165.011 1285.85 175.64 1288.35 184.366C1290.84 193.095 1295.12 201.571 1294.94 210.646C1294.71 222.897 1286.55 233.304 1280.45 243.932C1263.98 272.644 1261.65 309.05 1274.35 339.623C1281.74 357.426 1293.71 372.908 1302.89 389.858C1312.08 406.807 1318.54 426.638 1313.6 445.269C1335 421.857 1337.47 387.328 1338.82 355.637L1342.18 277.051C1342.76 263.419 1343.25 249.245 1337.84 236.721C1335.03 230.23 1330.76 224.502 1327.18 218.41M1327.18 218.41C1312.23 193.045 1306.07 158.234 1278.86 147.001C1252.48 136.114 1222.11 155.074 1194.28 148.755L1193.22 148.71C1169.25 127.974 1165.48 115.761 1166.97 108.312C1167.45 105.925 1169.46 99.9706 1166.44 94.6671C1164.31 90.9375 1159.86 89.3531 1156.45 86.7449C1142.03 75.7059 1150.13 51.9782 1142.35 35.5644C1139.69 29.9511 1135.23 25.4225 1131.69 20.317C1114.95 -3.81013 1120.62 -36.3472 1126.97 -65.0189C1127.76 -68.5643 1128.72 -72.4005 1131.58 -74.6399C1136.16 -78.2234 1142.87 -75.8525 1147.82 -72.8117C1188.56 -47.7805 1201.68 11.8333 1246.39 28.7989C1257.66 33.076 1269.94 34.0917 1281.32 38.0682C1296.13 43.2478 1309.66 53.4623 1325.35 53.8345C1348.7 54.3878 1369.99 32.8288 1392.66 38.4451C1418.83 44.9323 1429.84 84.0998 1456.81 84.1204C1464.66 84.1269 1472.01 80.5097 1479.67 78.7723C1495.98 75.0696 1514.07 80.5913 1525.54 92.7729C1537 104.954 1541.42 123.345 1536.74 139.406C1532.66 153.398 1522.3 165.492 1521.18 180.022C1520.14 193.354 1527.1 205.874 1529.76 218.978C1533.44 237.124 1528.37 256.847 1516.38 270.959C1512.79 275.182 1508.34 279.07 1502.9 280.122C1498.49 280.974 1493.97 279.875 1489.64 278.707C1436.92 264.477 1413.28 249.079 1406.92 245.679C1389.34 236.282 1363.24 225.051 1327.18 218.41Z" stroke="white" stroke-width="0.510638" stroke-miterlimit="0"/>
<path d="M1222.41 14.4696C1228.79 8.78837 1229.82 4.04969 1229.89 1.31057C1229.94 -0.491824 1231.14 -2.24614 1225.7 -13.9615C1224.74 -16.0433 1223.7 -18.1926 1223.71 -20.488C1223.75 -32.7777 1249.15 -31.406 1249.13 -43.696C1249.12 -48.9254 1243.83 -52.7801 1243.01 -57.9421C1242.01 -64.1609 1247.56 -69.2457 1252.23 -73.4624C1260.99 -81.3611 1268.46 -90.5814 1274.36 -100.789C1276.4 -104.312 1278.3 -108.388 1277.24 -112.318C1276.26 -115.941 1272.95 -118.479 1269.5 -119.981C1249.51 -128.707 1227.1 -110.554 1205.49 -113.568C1194.5 -115.101 1194.93 -118.451 1185.47 -118.672C1163.77 -119.176 1147.64 -103.003 1144.05 -99.404C1124.45 -79.7473 1123.5 -54.1896 1123.45 -47.6191" stroke="white" stroke-width="0.510638" stroke-miterlimit="0"/>
<path d="M1314.96 443.726C1314 445.307 1312.84 446.758 1311.51 448.044C1304.23 455.044 1293.74 454.953 1287.27 454.79C1263.64 454.198 1259.57 451.594 1249.41 452.093C1233.44 452.879 1218.98 461.185 1204.36 467.663C1189.73 474.14 1172.7 478.891 1158.02 472.539C1140.36 464.894 1132.81 444.6 1122.42 428.399C1108.1 406.077 1085.39 389.274 1059.86 382.098C1048.55 378.921 1036.65 377.529 1025.99 372.579C1012.88 366.481 1002.67 355.414 994.547 343.446C986.647 331.81 971.908 306.12 969.265 240.796C968.185 214.113 968.922 176.371 977.424 131.387" stroke="white" stroke-width="0.510638" stroke-miterlimit="0"/>
<path d="M1260.3 143.566C1249.94 147.639 1237.46 149.135 1226.86 155.3C1198.02 171.65 1174.19 194.921 1143.48 206.601C1125.07 212.389 1108.13 203.556 1091.91 195.711C1077.12 189.844 1061.41 195.189 1044.54 196.854C1013.49 199.74 1005.32 163.473 991.284 141.996C982.7 130.132 968.625 125.254 959.767 115.094C956.19 110.151 950.636 106.638 950.681 98.705M950.681 98.705C980.12 119.329 951.177 101.891 950.681 98.705ZM950.681 98.705C980.12 119.329 1020.92 126.644 1055.32 115.224C1072.28 109.595 1091.62 96.8406 1109.95 104.232C1116.06 106.696 1120.82 110.735 1125.06 115.377C1134.15 125.338 1134.23 128.84 1143.12 136.796C1148.67 141.766 1156.52 148.791 1166.97 148.335C1175.31 147.972 1181.43 143.01 1184.2 140.39" stroke="white" stroke-width="0.510638" stroke-miterlimit="0"/>
<path d="M1182.79 206.704C1179.45 216.472 1169.38 222.452 1159.34 224.869C1149.31 227.285 1138.82 226.983 1128.65 228.756C1103.61 233.122 1081.33 250.916 1071.53 274.369" stroke="white" stroke-width="0.510638" stroke-miterlimit="0"/>
<path d="M1331.68 190.105C1336.08 182.665 1346.53 182.081 1355.11 183.151C1370.64 185.094 1385.75 189.521 1399.88 196.263C1411.16 201.65 1421.87 208.538 1433.95 211.774C1446.02 215.009 1460.32 213.809 1468.99 204.803" stroke="white" stroke-width="0.510638" stroke-miterlimit="0"/>
<path d="M1266.29 131.671C1261.96 122.729 1250.51 120.09 1240.58 119.97C1230.65 119.85 1219.99 121.012 1211.45 115.931C1204.7 111.915 1200.61 104.72 1196.82 97.843L1169.68 48.6034" stroke="white" stroke-width="0.510638" stroke-miterlimit="0"/>
<path d="M1356.41 271.885C1368.19 270.984 1378.21 281.019 1382.98 291.828C1387.76 302.638 1389.11 314.709 1393.81 325.553C1400.36 340.664 1413.57 352.743 1429.21 357.913" stroke="white" stroke-width="0.510638" stroke-miterlimit="0"/>
<path d="M1190.67 158.908C1175.76 160.431 1165.59 174.306 1152.59 181.786C1141.78 188.007 1128.46 189.716 1116.43 186.426" stroke="white" stroke-width="0.510638" stroke-miterlimit="0"/>
<path d="M1307.14 206.74C1310.02 216.478 1311.5 226.571 1311.57 236.724C1311.59 241.349 1311.27 246.162 1309.02 250.202C1306.44 254.826 1301.74 257.77 1297.63 261.102C1283.41 272.621 1274.99 290.981 1275.55 309.274" stroke="white" stroke-width="0.510638" stroke-miterlimit="0"/>
<path d="M1256.44 256.522C1251.52 261.33 1250.26 268.806 1250.67 275.671C1251.08 282.537 1252.89 289.284 1253 296.161C1253.21 308.239 1248.23 319.729 1243.35 330.779L1231.77 357.014" stroke="white" stroke-width="0.510638" stroke-miterlimit="0"/>
<path d="M1398.44 1072.24C1399.1 1071.95 1399.45 1073.26 1398.82 1073.62C1398.18 1073.97 1397.4 1073.61 1396.79 1073.21C1391.24 1069.55 1388.16 1062.93 1387.4 1056.33C1386.64 1049.72 1387.93 1043.06 1389.52 1036.61C1390.47 1032.76 1391.56 1028.9 1393.46 1025.43C1399.12 1015.08 1411.75 1009.66 1423.49 1010.76C1435.24 1011.86 1445.93 1018.66 1453.66 1027.58" stroke="white" stroke-width="0.510638" stroke-miterlimit="0"/>
<path d="M1393.55 1108.81C1387.22 1123.21 1380.54 1138.1 1368.66 1148.42C1359.53 1156.35 1348 1160.95 1338.05 1167.84C1322.73 1178.45 1311.65 1194.11 1297.3 1205.99C1282.95 1217.88 1262.43 1225.82 1245.79 1217.44C1227.14 1208.04 1222.79 1184.07 1213.6 1165.31C1198.94 1135.34 1167.48 1112.87 1163.9 1079.7C1162.49 1066.57 1165.81 1053.31 1164.84 1040.14C1163.88 1027.2 1158.82 1014.57 1159.97 1001.65C1161.47 984.954 1173.01 970.876 1177.24 954.656C1179.28 946.82 1179.56 938.63 1181.27 930.715C1186.28 907.423 1204.44 887.429 1227.14 880.19C1249.83 872.953 1276.21 878.747 1293.78 894.835" stroke="white" stroke-width="0.510638" stroke-miterlimit="0"/>
<path d="M1450.77 1075.93C1446.33 1071.04 1438.59 1071.09 1432.21 1072.81C1425.83 1074.53 1419.62 1077.55 1413.01 1077.32C1404.1 1077.02 1396.61 1070.96 1388.95 1066.41C1368.23 1054.1 1341.76 1052.01 1319.37 1060.92C1306.33 1066.1 1294.93 1074.64 1282.49 1081.14C1270.05 1087.64 1255.55 1092.12 1242.04 1088.32C1258.85 1104.15 1283.95 1106.33 1307 1107.66L1364.16 1110.97C1374.08 1111.54 1384.39 1112.06 1393.56 1108.25C1398.32 1106.28 1402.54 1103.24 1407.01 1100.69M1407.01 1100.69C1425.63 1090.09 1451.04 1086 1459.51 1066.31C1467.73 1047.23 1454.26 1024.92 1459.17 1004.73L1459.21 1003.97C1474.56 986.749 1483.5 984.14 1488.9 985.305C1490.63 985.68 1494.94 987.204 1498.84 985.066C1501.58 983.562 1502.78 980.338 1504.71 977.886C1512.91 967.51 1530.09 973.667 1542.12 968.185C1546.23 966.311 1549.58 963.116 1553.33 960.594C1571.08 948.675 1594.7 953.16 1615.49 958.098C1618.07 958.709 1620.85 959.451 1622.45 961.557C1625 964.926 1623.2 969.783 1620.94 973.353C1602.27 1002.73 1558.74 1011.63 1545.9 1043.98C1542.66 1052.14 1541.79 1061.06 1538.77 1069.3C1534.84 1080.03 1527.25 1089.76 1526.81 1101.18C1526.15 1118.16 1541.61 1133.89 1537.27 1150.33C1532.26 1169.31 1503.63 1176.89 1503.32 1196.52C1503.23 1202.24 1505.78 1207.62 1506.96 1213.21C1509.48 1225.13 1505.26 1238.24 1496.27 1246.45C1487.28 1254.66 1473.84 1257.67 1462.21 1254.09C1452.07 1250.97 1443.38 1243.29 1432.82 1242.32C1423.12 1241.42 1413.94 1246.34 1404.37 1248.13C1391.12 1250.62 1376.82 1246.7 1366.68 1237.82C1363.65 1235.17 1360.87 1231.88 1360.16 1227.91C1359.59 1224.69 1360.44 1221.41 1361.34 1218.28C1372.27 1180.06 1383.74 1163.02 1386.29 1158.43C1393.32 1145.75 1401.78 1126.87 1407.01 1100.69Z" stroke="white" stroke-width="0.510638" stroke-miterlimit="0"/>
<path d="M1243.15 1089.33C1242.01 1088.61 1240.97 1087.75 1240.05 1086.77C1235.03 1081.39 1235.21 1073.76 1235.4 1069.05C1236.09 1051.86 1238.03 1048.93 1237.78 1041.53C1237.39 1029.89 1231.5 1019.28 1226.95 1008.57C1222.39 997.85 1219.12 985.403 1223.91 974.789C1229.66 962.016 1244.52 956.748 1256.42 949.361C1272.83 939.181 1285.31 922.842 1290.81 904.338C1293.25 896.142 1294.39 887.493 1298.11 879.795C1302.69 870.313 1310.86 863.01 1319.66 857.227C1328.21 851.604 1347.07 841.16 1394.65 839.954C1414.08 839.461 1441.54 840.412 1474.19 847.094" stroke="white" stroke-width="0.510638" stroke-miterlimit="0"/>
<path d="M1462.22 1052.84C1459.37 1045.26 1458.41 1036.16 1454.04 1028.38C1442.46 1007.21 1425.79 989.606 1417.62 967.125C1413.61 953.664 1420.23 941.435 1426.11 929.715C1430.55 919.015 1426.83 907.519 1425.8 895.221C1424.04 872.59 1450.53 867.044 1466.31 857.066C1475.04 850.948 1478.75 840.757 1486.24 834.422C1489.88 831.873 1492.5 827.869 1498.27 827.989M1498.27 827.989C1482.93 849.189 1495.94 828.315 1498.27 827.989ZM1498.27 827.989C1482.93 849.189 1477.16 878.801 1485.1 903.97C1489.01 916.375 1498.08 930.586 1492.5 943.846C1490.64 948.269 1487.64 951.688 1484.22 954.72C1476.87 961.228 1474.32 961.252 1468.43 967.631C1464.75 971.617 1459.55 977.251 1459.77 984.863C1459.94 990.94 1463.49 995.444 1465.36 997.494" stroke="white" stroke-width="0.510638" stroke-miterlimit="0"/>
<path d="M1417.11 995.736C1410.04 993.201 1405.8 985.802 1404.15 978.471C1402.5 971.142 1402.84 963.508 1401.66 956.088C1398.76 937.817 1386.05 921.404 1369.09 914.019" stroke="white" stroke-width="0.510638" stroke-miterlimit="0"/>
<path d="M1427.56 1104.29C1432.93 1107.57 1433.24 1115.18 1432.36 1121.41C1430.78 1132.69 1427.39 1143.65 1422.33 1153.85C1418.28 1162 1413.15 1169.72 1410.66 1178.48C1408.18 1187.23 1408.89 1197.65 1415.35 1204.06" stroke="white" stroke-width="0.510638" stroke-miterlimit="0"/>
<path d="M1367.77 1121.38C1368.29 1129.97 1360.88 1137.15 1352.96 1140.51C1345.04 1143.87 1336.24 1144.71 1328.3 1148.02C1317.23 1152.62 1308.29 1162.1 1304.35 1173.42" stroke="white" stroke-width="0.510638" stroke-miterlimit="0"/>
<path d="M1451.81 1002C1450.87 991.126 1440.88 983.574 1435.58 974.032C1431.17 966.095 1430.08 956.384 1432.6 947.663" stroke="white" stroke-width="0.510638" stroke-miterlimit="0"/>
<path d="M1415.72 1086.24C1408.6 1088.23 1401.24 1089.2 1393.85 1089.13C1390.48 1089.1 1386.98 1088.81 1384.07 1087.13C1380.73 1085.21 1378.64 1081.75 1376.26 1078.72C1368.03 1068.24 1354.76 1061.92 1341.44 1062.12" stroke="white" stroke-width="0.510638" stroke-miterlimit="0"/>
<path d="M1380.05 1048.79C1376.6 1045.16 1371.17 1044.16 1366.17 1044.38C1361.17 1044.61 1356.24 1045.85 1351.23 1045.86C1342.44 1045.87 1334.13 1042.13 1326.14 1038.45L1307.18 1029.74" stroke="white" stroke-width="0.510638" stroke-miterlimit="0"/>
<path d="M92.9083 808.77C92.3899 808.542 92.1185 809.565 92.6119 809.844C93.1048 810.122 93.7176 809.835 94.1903 809.524C98.5138 806.674 100.912 801.523 101.504 796.38C102.095 791.236 101.093 786.046 99.8498 781.02C99.108 778.024 98.2662 775.02 96.7839 772.314C92.3718 764.256 82.5398 760.038 73.3929 760.893C64.246 761.748 55.9206 767.046 49.9018 773.987" stroke="white" stroke-width="0.510638" stroke-miterlimit="0"/>
<path d="M96.7135 837.255C101.642 848.468 106.847 860.066 116.094 868.097C123.21 874.278 132.187 877.859 139.937 883.225C151.867 891.485 160.496 903.678 171.67 912.936C182.843 922.193 198.827 928.381 211.785 921.85C226.313 914.528 229.701 895.861 236.852 881.249C248.273 857.913 272.776 840.413 275.559 814.582C276.661 804.354 274.076 794.03 274.832 783.77C275.573 773.697 279.52 763.855 278.62 753.795C277.457 740.794 268.463 729.831 265.174 717.198C263.586 711.096 263.362 704.718 262.034 698.553C258.128 680.414 243.992 664.843 226.314 659.206C208.636 653.569 188.095 658.082 174.41 670.61" stroke="white" stroke-width="0.510638" stroke-miterlimit="0"/>
<path d="M52.1508 811.647C55.608 807.836 61.6346 807.875 66.6023 809.214C71.571 810.552 76.4121 812.904 81.5546 812.729C88.4967 812.492 94.3259 807.776 100.298 804.229C116.431 794.645 137.047 793.017 154.485 799.952C164.639 803.99 173.517 810.641 183.203 815.701C192.889 820.762 204.184 824.257 214.703 821.294C201.615 833.623 182.065 835.32 164.113 836.358L119.598 838.935C111.877 839.381 103.846 839.78 96.7012 836.818C92.9984 835.284 89.7146 832.913 86.231 830.931M86.231 830.931C71.7258 822.675 51.9414 819.485 45.3419 804.155C38.9451 789.297 49.4323 771.919 45.6121 756.199L45.5777 755.6C33.6189 742.192 26.6642 740.16 22.4546 741.068C21.1057 741.359 17.7478 742.546 14.7159 740.882C12.5837 739.71 11.6475 737.2 10.14 735.29C3.7595 727.209 -9.62049 732.004 -18.9907 727.735C-22.1951 726.275 -24.8002 723.787 -27.7244 721.823C-41.5434 712.541 -59.9374 716.034 -76.1347 719.879C-78.1376 720.355 -80.3038 720.933 -81.5486 722.573C-83.5407 725.197 -82.1394 728.979 -80.3734 731.76C-65.8366 754.641 -31.9342 761.567 -21.9352 786.763C-19.4144 793.115 -18.7336 800.064 -16.3823 806.481C-13.3196 814.836 -7.4141 822.416 -7.0688 831.307C-6.55538 844.537 -18.5933 856.785 -15.2159 869.587C-11.3148 884.369 10.9802 890.273 11.2227 905.56C11.2936 910.01 9.30618 914.205 8.3869 918.561C6.42779 927.839 9.71239 938.046 16.7152 944.441C23.7177 950.836 34.1802 953.183 43.2438 950.392C51.1397 947.961 57.9061 941.987 66.1325 941.224C73.68 940.523 80.8362 944.358 88.2866 945.755C98.6039 947.688 109.739 944.642 117.636 937.727C119.999 935.656 122.164 933.097 122.714 930.005C123.159 927.501 122.498 924.947 121.799 922.502C113.282 892.742 104.352 879.472 102.37 875.897C96.8931 866.017 90.3038 851.316 86.231 830.931Z" stroke="white" stroke-width="0.510638" stroke-miterlimit="0"/>
<path d="M213.84 822.081C214.728 821.523 215.541 820.852 216.258 820.087C220.163 815.899 220.022 809.958 219.874 806.287C219.337 792.901 217.825 790.615 218.022 784.855C218.331 775.792 222.914 767.528 226.462 759.183C230.007 750.838 232.555 741.144 228.829 732.878C224.344 722.93 212.776 718.828 203.505 713.075C190.729 705.147 181.011 692.422 176.725 678.011C174.827 671.629 173.937 664.892 171.04 658.897C167.471 651.514 161.111 645.826 154.258 641.322C147.595 636.943 132.907 628.809 95.8573 627.87C80.7235 627.486 59.3373 628.227 33.9123 633.431" stroke="white" stroke-width="0.510638" stroke-miterlimit="0"/>
<path d="M43.2358 793.664C45.4562 787.758 46.1971 780.674 49.6011 774.612C58.6218 758.125 71.608 744.417 77.9656 726.909C81.0888 716.426 75.937 706.902 71.3518 697.775C67.8995 689.442 70.7951 680.489 71.5941 670.912C72.9645 653.287 52.3378 648.968 40.0441 641.196C33.246 636.432 30.3603 628.496 24.5258 623.562C21.6932 621.576 19.6548 618.458 15.1584 618.552M15.1584 618.552C27.1006 635.062 16.9688 618.806 15.1584 618.552ZM15.1584 618.552C27.1006 635.062 31.596 658.123 25.4172 677.725C22.3716 687.386 15.3077 698.453 19.6541 708.78C21.1032 712.225 23.433 714.887 26.1008 717.249C31.8247 722.316 33.8103 722.335 38.3957 727.304C41.2605 730.407 45.3093 734.795 45.1406 740.724C45.0059 745.456 42.2459 748.964 40.7848 750.56" stroke="white" stroke-width="0.510638" stroke-miterlimit="0"/>
<path d="M78.3604 749.191C83.8685 747.217 87.1721 741.454 88.4558 735.745C89.7396 730.037 89.4788 724.092 90.3965 718.313C92.6572 704.084 102.552 691.302 115.762 685.551" stroke="white" stroke-width="0.510638" stroke-miterlimit="0"/>
<path d="M70.2259 833.728C66.0468 836.286 65.8052 842.213 66.4847 847.065C67.7191 855.851 70.3579 864.381 74.3 872.33C77.4504 878.678 81.4461 884.69 83.3835 891.507C85.3204 898.324 84.7629 906.442 79.7323 911.433" stroke="white" stroke-width="0.510638" stroke-miterlimit="0"/>
<path d="M36.5454 797.164C31.4397 794.787 29.8458 788.318 29.6927 782.69C29.5395 777.06 30.1074 771.009 27.1542 766.214C24.8203 762.424 20.7065 760.166 16.7764 758.076L-11.3658 743.112" stroke="white" stroke-width="0.510638" stroke-miterlimit="0"/>
<path d="M116.792 847.044C116.382 853.731 122.156 859.321 128.323 861.937C134.492 864.553 141.345 865.213 147.532 867.785C156.153 871.368 163.113 878.753 166.177 887.572" stroke="white" stroke-width="0.510638" stroke-miterlimit="0"/>
<path d="M51.3364 754.07C52.0722 745.601 59.8498 739.719 63.9781 732.289C67.4117 726.107 68.2664 718.544 66.2986 711.752" stroke="white" stroke-width="0.510638" stroke-miterlimit="0"/>
<path d="M79.4451 819.676C84.9893 821.221 90.7233 821.979 96.4785 821.926C99.1001 821.902 101.826 821.678 104.097 820.368C106.695 818.869 108.324 816.178 110.177 813.818C116.585 805.658 126.919 800.731 137.293 800.891" stroke="white" stroke-width="0.510638" stroke-miterlimit="0"/>
<path d="M107.229 790.511C109.912 787.681 114.138 786.903 118.033 787.077C121.929 787.252 125.768 788.217 129.667 788.224C136.515 788.236 142.985 785.319 149.207 782.459L163.978 775.669" stroke="white" stroke-width="0.510638" stroke-miterlimit="0"/>
<path d="M1229.47 1475.01C1229.88 1474.83 1230.09 1475.64 1229.71 1475.86C1229.32 1476.08 1228.84 1475.85 1228.46 1475.61C1225.06 1473.36 1223.18 1469.31 1222.71 1465.27C1222.25 1461.22 1223.04 1457.14 1224.01 1453.19C1224.6 1450.83 1225.26 1448.47 1226.42 1446.34C1229.89 1440.01 1237.63 1436.69 1244.82 1437.36C1252.01 1438.03 1258.56 1442.2 1263.29 1447.66" stroke="white" stroke-width="0.510638" stroke-miterlimit="0"/>
<path d="M1226.48 1497.41C1222.6 1506.23 1218.51 1515.35 1211.24 1521.67C1205.64 1526.53 1198.58 1529.34 1192.49 1533.56C1183.11 1540.06 1176.32 1549.65 1167.53 1556.93C1158.75 1564.21 1146.18 1569.08 1135.99 1563.94C1124.56 1558.18 1121.9 1543.5 1116.27 1532.01C1107.29 1513.66 1088.02 1499.9 1085.83 1479.58C1084.97 1471.54 1087 1463.42 1086.41 1455.35C1085.82 1447.43 1082.72 1439.69 1083.43 1431.78C1084.34 1421.56 1091.42 1412.93 1094 1403C1095.25 1398.2 1095.43 1393.19 1096.47 1388.34C1099.54 1374.07 1110.66 1361.83 1124.56 1357.39C1138.46 1352.96 1154.62 1356.51 1165.38 1366.36" stroke="white" stroke-width="0.510638" stroke-miterlimit="0"/>
<path d="M1261.52 1477.28C1258.81 1474.28 1254.07 1474.31 1250.16 1475.36C1246.25 1476.41 1242.44 1478.26 1238.4 1478.13C1232.94 1477.94 1228.36 1474.23 1223.66 1471.44C1210.97 1463.9 1194.76 1462.62 1181.05 1468.08C1173.06 1471.25 1166.08 1476.48 1158.46 1480.46C1150.85 1484.44 1141.96 1487.19 1133.69 1484.86C1143.98 1494.56 1159.36 1495.89 1173.48 1496.71L1208.48 1498.73C1214.56 1499.09 1220.87 1499.4 1226.49 1497.07C1229.4 1495.86 1231.98 1494 1234.72 1492.44M1234.72 1492.44C1246.13 1485.95 1261.69 1483.44 1266.88 1471.38C1271.91 1459.7 1263.66 1446.03 1266.67 1433.67L1266.69 1433.2C1276.1 1422.66 1281.57 1421.06 1284.88 1421.77C1285.94 1422 1288.58 1422.93 1290.96 1421.62C1292.64 1420.7 1293.38 1418.73 1294.56 1417.23C1299.58 1410.87 1310.1 1414.64 1317.47 1411.29C1319.99 1410.14 1322.04 1408.18 1324.34 1406.64C1335.21 1399.34 1349.67 1402.08 1362.41 1405.11C1363.98 1405.48 1365.69 1405.94 1366.67 1407.23C1368.23 1409.29 1367.13 1412.26 1365.74 1414.45C1354.31 1432.45 1327.65 1437.89 1319.79 1457.71C1317.8 1462.7 1317.27 1468.17 1315.42 1473.21C1313.01 1479.78 1308.37 1485.74 1308.09 1492.74C1307.69 1503.14 1317.16 1512.77 1314.5 1522.84C1311.43 1534.46 1293.9 1539.11 1293.71 1551.13C1293.65 1554.63 1295.22 1557.93 1295.94 1561.35C1297.48 1568.65 1294.9 1576.68 1289.39 1581.71C1283.88 1586.73 1275.66 1588.58 1268.53 1586.38C1262.32 1584.47 1257 1579.77 1250.53 1579.18C1244.59 1578.62 1238.97 1581.64 1233.11 1582.74C1224.99 1584.26 1216.24 1581.86 1210.03 1576.42C1208.17 1574.8 1206.47 1572.78 1206.03 1570.35C1205.68 1568.38 1206.2 1566.37 1206.75 1564.45C1213.45 1541.05 1220.47 1530.61 1222.03 1527.8C1226.34 1520.03 1231.52 1508.47 1234.72 1492.44Z" stroke="white" stroke-width="0.510638" stroke-miterlimit="0"/>
<path d="M1326.33 1447.11C1328.82 1450 1330.93 1450.49 1332.15 1450.54C1332.95 1450.57 1333.73 1451.12 1338.99 1448.77C1339.92 1448.36 1340.88 1447.91 1341.91 1447.93C1347.39 1448.03 1346.6 1459.34 1352.08 1459.42C1354.41 1459.45 1356.17 1457.12 1358.47 1456.78C1361.25 1456.38 1363.48 1458.89 1365.33 1461C1368.79 1464.96 1372.85 1468.35 1377.36 1471.05C1378.92 1471.98 1380.72 1472.86 1382.48 1472.41C1384.1 1471.99 1385.26 1470.54 1385.95 1469.01C1389.97 1460.16 1382.03 1450.04 1383.52 1440.43C1384.28 1435.54 1385.77 1435.76 1385.93 1431.54C1386.3 1421.87 1379.2 1414.58 1377.62 1412.95C1368.99 1404.08 1357.6 1403.49 1354.68 1403.42" stroke="white" stroke-width="0.510638" stroke-miterlimit="0"/>
<path d="M1134.37 1485.48C1133.67 1485.04 1133.03 1484.51 1132.47 1483.91C1129.4 1480.62 1129.51 1475.95 1129.63 1473.06C1130.05 1462.53 1131.24 1460.74 1131.08 1456.21C1130.84 1449.08 1127.23 1442.58 1124.45 1436.02C1121.66 1429.45 1119.65 1421.83 1122.58 1415.33C1126.11 1407.51 1135.21 1404.28 1142.5 1399.76C1152.55 1393.52 1160.19 1383.52 1163.56 1372.18C1165.05 1367.16 1165.75 1361.87 1168.03 1357.15C1170.84 1351.35 1175.84 1346.87 1181.23 1343.33C1186.47 1339.89 1198.02 1333.49 1227.15 1332.75C1239.05 1332.45 1255.87 1333.03 1275.87 1337.13" stroke="white" stroke-width="0.510638" stroke-miterlimit="0"/>
<path d="M1268.54 1463.13C1266.79 1458.49 1266.21 1452.92 1263.53 1448.15C1256.44 1435.19 1246.22 1424.41 1241.22 1410.64C1238.77 1402.39 1242.82 1394.9 1246.42 1387.73C1249.14 1381.17 1246.86 1374.13 1246.23 1366.6C1245.16 1352.74 1261.38 1349.34 1271.05 1343.23C1276.39 1339.48 1278.66 1333.24 1283.25 1329.36C1285.48 1327.8 1287.08 1325.35 1290.62 1325.42M1290.62 1325.42C1281.22 1338.41 1289.19 1325.62 1290.62 1325.42ZM1290.62 1325.42C1281.22 1338.41 1277.69 1356.54 1282.55 1371.96C1284.94 1379.56 1290.5 1388.26 1287.08 1396.38C1285.94 1399.09 1284.11 1401.18 1282.01 1403.04C1277.51 1407.02 1275.95 1407.04 1272.34 1410.95C1270.09 1413.39 1266.9 1416.84 1267.04 1421.5C1267.14 1425.22 1269.31 1427.98 1270.46 1429.24" stroke="white" stroke-width="0.510638" stroke-miterlimit="0"/>
<path d="M1240.91 1428.16C1236.58 1426.61 1233.98 1422.08 1232.97 1417.59C1231.96 1413.1 1232.17 1408.42 1231.45 1403.88C1229.67 1392.69 1221.89 1382.64 1211.5 1378.11" stroke="white" stroke-width="0.510638" stroke-miterlimit="0"/>
<path d="M1247.31 1494.64C1250.6 1496.65 1250.79 1501.31 1250.25 1505.13C1249.28 1512.04 1247.21 1518.75 1244.11 1525C1241.63 1529.99 1238.49 1534.72 1236.96 1540.08C1235.44 1545.44 1235.88 1551.82 1239.83 1555.75" stroke="white" stroke-width="0.510638" stroke-miterlimit="0"/>
<path d="M1273.8 1465.89C1277.81 1464.02 1279.07 1458.93 1279.19 1454.5C1279.31 1450.08 1278.86 1445.32 1281.18 1441.55C1283.02 1438.57 1286.25 1436.79 1289.34 1435.15L1311.47 1423.38" stroke="white" stroke-width="0.510638" stroke-miterlimit="0"/>
<path d="M1210.69 1505.11C1211.01 1510.37 1206.47 1514.77 1201.62 1516.82C1196.77 1518.88 1191.38 1519.4 1186.52 1521.42C1179.74 1524.24 1174.26 1530.05 1171.85 1536.98" stroke="white" stroke-width="0.510638" stroke-miterlimit="0"/>
<path d="M1262.16 1432C1261.59 1425.34 1255.47 1420.71 1252.22 1414.87C1249.52 1410.01 1248.85 1404.06 1250.4 1398.72" stroke="white" stroke-width="0.510638" stroke-miterlimit="0"/>
<path d="M1240.06 1483.59C1235.7 1484.8 1231.19 1485.4 1226.66 1485.36C1224.6 1485.34 1222.46 1485.16 1220.67 1484.13C1218.63 1482.95 1217.35 1480.84 1215.89 1478.98C1210.85 1472.57 1202.73 1468.69 1194.57 1468.82" stroke="white" stroke-width="0.510638" stroke-miterlimit="0"/>
<path d="M1365.41 1416.98C1370.09 1421.04 1371.12 1427.89 1370.9 1434.08C1370.68 1440.28 1369.53 1446.59 1371.06 1452.59" stroke="white" stroke-width="0.510638" stroke-miterlimit="0"/>
<path d="M1218.21 1460.65C1216.1 1458.43 1212.78 1457.82 1209.71 1457.95C1206.65 1458.09 1203.63 1458.85 1200.56 1458.85C1195.18 1458.86 1190.09 1456.57 1185.2 1454.32L1173.58 1448.98" stroke="white" stroke-width="0.510638" stroke-miterlimit="0"/>
<path d="M186.046 1441.08C185.177 1440.7 184.722 1442.42 185.549 1442.89C186.376 1443.35 187.403 1442.87 188.196 1442.35C195.445 1437.57 199.465 1428.93 200.458 1420.31C201.448 1411.69 199.77 1402.98 197.685 1394.56C196.441 1389.53 195.03 1384.5 192.544 1379.96C185.147 1366.45 168.661 1359.38 153.325 1360.81C137.989 1362.24 124.03 1371.13 113.938 1382.76" stroke="white" stroke-width="0.510638" stroke-miterlimit="0"/>
<path d="M192.426 1488.85C200.689 1507.65 209.417 1527.09 224.921 1540.56C236.852 1550.92 251.905 1556.92 264.898 1565.92C284.901 1579.77 299.369 1600.22 318.104 1615.74C336.839 1631.26 363.639 1641.63 385.365 1630.68C409.723 1618.41 415.404 1587.11 427.395 1562.61C446.544 1523.48 487.626 1494.14 492.294 1450.83C494.141 1433.68 489.807 1416.37 491.074 1399.17C492.317 1382.28 498.935 1365.78 497.425 1348.91C495.475 1327.11 480.395 1308.73 474.881 1287.55C472.218 1277.32 471.842 1266.62 469.616 1256.29C463.067 1225.87 439.365 1199.77 409.725 1190.31C380.085 1180.86 345.645 1188.43 322.698 1209.44" stroke="white" stroke-width="0.510638" stroke-miterlimit="0"/>
<path d="M117.71 1445.91C123.506 1439.52 133.611 1439.58 141.94 1441.83C150.271 1444.07 158.388 1448.02 167.01 1447.72C178.65 1447.33 188.424 1439.42 198.437 1433.47C225.487 1417.4 260.053 1414.67 289.291 1426.3C306.316 1433.07 321.202 1444.22 337.442 1452.71C353.682 1461.19 372.621 1467.05 390.257 1462.08C368.314 1482.76 335.534 1485.6 305.435 1487.34L230.797 1491.66C217.85 1492.41 204.386 1493.08 192.406 1488.11C186.198 1485.54 180.692 1481.57 174.851 1478.24M174.851 1478.24C150.531 1464.4 117.358 1459.05 106.293 1433.35C95.5677 1408.43 113.151 1379.3 106.746 1352.94L106.689 1351.94C86.6374 1329.45 74.9767 1326.05 67.9185 1327.57C65.6568 1328.06 60.0267 1330.05 54.9431 1327.26C51.3682 1325.29 49.7984 1321.08 47.2708 1317.88C36.5727 1304.33 14.1387 1312.37 -1.57212 1305.21C-6.94495 1302.77 -11.3128 1298.6 -16.2158 1295.3C-39.3857 1279.74 -70.2267 1285.6 -97.3844 1292.04C-100.743 1292.84 -104.375 1293.81 -106.462 1296.56C-109.802 1300.96 -107.452 1307.3 -104.491 1311.96C-80.1178 1350.33 -23.2742 1361.94 -6.50904 1404.19C-2.2825 1414.84 -1.1411 1426.49 2.80135 1437.25C7.93656 1451.26 17.8381 1463.96 18.4171 1478.87C19.2779 1501.05 -0.90581 1521.59 4.75709 1543.06C11.298 1567.84 48.6796 1577.74 49.0861 1603.37C49.205 1610.83 45.8727 1617.87 44.3314 1625.17C41.0466 1640.73 46.5538 1657.84 58.2953 1668.56C70.0362 1679.28 87.5785 1683.22 102.775 1678.54C116.014 1674.46 127.359 1664.45 141.152 1663.17C153.807 1661.99 165.806 1668.42 178.298 1670.76C195.596 1674.01 214.267 1668.9 227.507 1657.3C231.469 1653.83 235.1 1649.54 236.022 1644.36C236.768 1640.16 235.66 1635.88 234.487 1631.78C220.207 1581.88 205.234 1559.63 201.911 1553.64C192.728 1537.07 181.68 1512.42 174.851 1478.24Z" stroke="white" stroke-width="0.510638" stroke-miterlimit="0"/>
<path d="M-20.4707 1381.6C-25.7784 1387.75 -30.267 1388.8 -32.8692 1388.9C-34.5815 1388.97 -36.2315 1390.14 -47.4435 1385.14C-49.4359 1384.25 -51.4934 1383.3 -53.6748 1383.34C-65.354 1383.55 -63.6859 1407.67 -75.3663 1407.83C-80.3363 1407.9 -84.0755 1402.93 -88.9932 1402.22C-94.9176 1401.36 -99.6705 1406.7 -103.611 1411.21C-110.992 1419.64 -119.648 1426.87 -129.264 1432.63C-132.583 1434.62 -136.429 1436.48 -140.179 1435.53C-143.637 1434.65 -146.096 1431.54 -147.573 1428.29C-156.153 1409.41 -139.223 1387.85 -142.396 1367.36C-144.011 1356.93 -147.189 1357.39 -147.535 1348.41C-148.326 1327.79 -133.186 1312.23 -129.817 1308.77C-111.417 1289.86 -87.1416 1288.59 -80.8979 1288.45" stroke="white" stroke-width="0.510638" stroke-miterlimit="0"/>
<path d="M388.811 1463.4C390.299 1462.47 391.662 1461.34 392.864 1460.06C399.413 1453.04 399.175 1443.08 398.928 1436.92C398.026 1414.48 395.493 1410.65 395.822 1400.99C396.34 1385.79 404.025 1371.94 409.973 1357.94C415.918 1343.95 420.189 1327.7 413.941 1313.84C406.423 1297.16 387.027 1290.28 371.482 1280.63C350.061 1267.34 333.766 1246.01 326.581 1221.84C323.399 1211.14 321.905 1199.85 317.048 1189.8C311.065 1177.42 300.4 1167.88 288.91 1160.33C277.738 1152.99 253.111 1139.35 190.991 1137.77C165.616 1137.13 129.759 1138.37 87.1289 1147.1" stroke="white" stroke-width="0.510638" stroke-miterlimit="0"/>
<path d="M102.761 1415.76C106.484 1405.85 107.726 1393.98 113.434 1383.81C128.559 1356.17 150.332 1333.19 160.992 1303.83C166.229 1286.25 157.591 1270.28 149.903 1254.98C144.114 1241.01 148.969 1226 150.309 1209.94C152.607 1180.39 118.022 1173.15 97.4097 1160.12C86.0115 1152.13 81.1731 1138.82 71.3904 1130.55C66.6412 1127.22 63.2234 1121.99 55.6844 1122.15M55.6844 1122.15C75.7076 1149.83 58.7199 1122.58 55.6844 1122.15ZM55.6844 1122.15C75.7076 1149.83 83.245 1188.5 72.8851 1221.36C67.7785 1237.56 55.9347 1256.12 63.2222 1273.43C65.6519 1279.21 69.5583 1283.67 74.0312 1287.63C83.6284 1296.13 86.9575 1296.16 94.6459 1304.49C99.4493 1309.7 106.238 1317.05 105.955 1326.99C105.729 1334.93 101.101 1340.81 98.6517 1343.49" stroke="white" stroke-width="0.510638" stroke-miterlimit="0"/>
<path d="M161.654 1341.19C170.889 1337.88 176.429 1328.22 178.581 1318.65C180.733 1309.08 180.296 1299.11 181.835 1289.42C185.625 1265.56 202.216 1244.13 224.365 1234.49" stroke="white" stroke-width="0.510638" stroke-miterlimit="0"/>
<path d="M148.015 1482.93C141.008 1487.22 140.603 1497.16 141.742 1505.29C143.812 1520.02 148.236 1534.33 154.846 1547.65C160.128 1558.3 166.827 1568.38 170.076 1579.81C173.323 1591.24 172.389 1604.85 163.954 1613.22" stroke="white" stroke-width="0.510638" stroke-miterlimit="0"/>
<path d="M91.544 1421.62C82.9833 1417.64 80.3107 1406.79 80.0542 1397.36C79.7973 1387.92 80.7494 1377.77 75.7979 1369.73C71.8847 1363.38 64.9872 1359.59 58.3975 1356.09L11.2121 1331" stroke="white" stroke-width="0.510638" stroke-miterlimit="0"/>
<path d="M226.092 1505.26C225.405 1516.47 235.085 1525.84 245.426 1530.23C255.768 1534.61 267.259 1535.72 277.633 1540.03C292.088 1546.04 303.757 1558.42 308.895 1573.21" stroke="white" stroke-width="0.510638" stroke-miterlimit="0"/>
<path d="M116.344 1349.37C117.577 1335.17 130.618 1325.31 137.54 1312.85C143.297 1302.49 144.73 1289.8 141.431 1278.42" stroke="white" stroke-width="0.510638" stroke-miterlimit="0"/>
<path d="M163.472 1459.37C172.768 1461.96 182.382 1463.23 192.032 1463.14C196.427 1463.1 200.997 1462.73 204.805 1460.53C209.162 1458.02 211.893 1453.51 215 1449.55C225.743 1435.87 243.071 1427.61 260.465 1427.87" stroke="white" stroke-width="0.510638" stroke-miterlimit="0"/>
<path d="M210.057 1410.47C214.556 1405.73 221.642 1404.42 228.173 1404.71C234.704 1405.01 241.142 1406.62 247.68 1406.64C259.161 1406.66 270.01 1401.76 280.441 1396.97L305.208 1385.59" stroke="white" stroke-width="0.510638" stroke-miterlimit="0"/>
</svg>
