<svg width="343" height="54" viewBox="0 0 343 54" fill="none" xmlns="http://www.w3.org/2000/svg">
<path d="M133.363 32H138.303C141.443 32 145.043 32.08 145.043 28.12C145.043 25.28 143.143 24.46 140.623 24.24C142.623 24.1 143.763 22.82 143.763 20.98C143.763 18.08 141.343 17.76 139.483 17.76C136.083 17.76 135.363 21.4 135.263 22V18.06H133.363V32ZM138.703 24.46C141.483 24.46 143.043 25.22 143.043 28.12C143.043 31.48 141.483 31.66 138.443 31.66H135.263V24.46H138.703ZM139.483 18.1C140.683 18.1 141.803 18.58 141.803 20.8C141.803 23.36 140.683 24.1 139.483 24.12H135.263C135.343 22.98 135.703 18.1 139.483 18.1ZM153.807 32.32C156.907 32.32 158.367 30.8 158.707 30.52L158.547 30.32C157.267 31.44 155.627 31.98 153.807 31.98C151.707 31.98 150.527 30.28 150.287 27.94H158.447C158.447 24.6 158.007 21.7 153.807 21.7C150.207 21.7 148.227 23.94 148.227 27C148.227 30.06 150.027 32.32 153.807 32.32ZM153.807 22.04C157.487 22.04 158.067 24.58 158.067 27.6H150.267C150.107 25.26 150.887 22.04 153.807 22.04ZM162.207 32H164.107C164.107 29.08 164.667 22.02 168.667 22.02C169.867 22.02 170.827 22.74 170.827 24.92V32H172.747V27.4C172.747 24.48 172.127 21.68 168.647 21.68C165.607 21.68 164.527 25.36 164.107 27.84V17.14H162.207V32ZM180.686 32.3C183.966 32.3 184.806 29.66 185.246 26.98V32H187.126V25.72C187.126 22.26 185.086 21.72 182.546 21.72C179.046 21.72 177.926 22.64 177.146 23.98L179.046 25.02C177.266 25.5 176.446 26.84 176.446 28.36C176.446 32.04 179.066 32.3 180.686 32.3ZM180.666 25.14H185.186C185.106 26.26 184.866 27.44 184.566 28.54C183.806 31.28 182.446 32 180.666 32C179.466 32 178.406 31.18 178.406 28.56C178.406 26.06 179.466 25.14 180.666 25.14ZM179.386 24.92C179.566 23.3 180.366 21.98 182.546 21.98C185.066 21.98 185.226 22.78 185.226 24.8H180.666C180.146 24.8 179.566 24.86 179.386 24.92ZM191.129 32H193.029C193.029 29.08 193.589 22.04 197.589 22.04C198.789 22.04 199.749 22.74 199.749 24.92V32H201.669V27.4C201.669 24.48 201.049 21.68 197.569 21.68C194.529 21.68 193.449 25.36 193.029 27.84V22H191.129V32ZM210.948 32.32C214.048 32.32 215.508 30.8 215.848 30.52L215.688 30.32C214.408 31.44 212.768 31.98 210.948 31.98C208.588 31.98 207.388 29.82 207.388 27C207.388 23.68 209.028 22.04 210.948 22.04C213.648 22.04 214.708 23.2 214.908 24.5L215.248 24.42C215.028 22.96 213.708 21.7 210.948 21.7C207.348 21.7 205.368 23.94 205.368 27C205.368 30.06 207.168 32.32 210.948 32.32ZM224.237 32.32C227.337 32.32 228.797 30.8 229.137 30.52L228.977 30.32C227.697 31.44 226.057 31.98 224.237 31.98C222.137 31.98 220.957 30.28 220.717 27.94H228.877C228.877 24.6 228.437 21.7 224.237 21.7C220.637 21.7 218.657 23.94 218.657 27C218.657 30.06 220.457 32.32 224.237 32.32ZM224.237 22.04C227.917 22.04 228.497 24.58 228.497 27.6H220.697C220.537 25.26 221.317 22.04 224.237 22.04Z" fill="white"/>
<path d="M41.8906 26.3833C41.8906 26.3833 43.9745 26.2249 43.9745 23.7314C43.9745 21.2399 42.5611 20.0117 40.4008 20.0117L33 20V33.7689H40.5729C40.5729 33.7689 44.3593 33.8887 44.3593 29.6382C44.3593 29.6382 44.6375 26.3833 41.8906 26.3833ZM35.7538 22.0653H39.5402C39.5402 22.0653 40.8359 22.0867 40.8359 23.7665C40.8359 25.5076 39.5402 25.5076 39.5402 25.5076H35.7538V22.0653ZM39.8844 31.7036H35.7538V27.5729H39.8844C39.8844 27.5729 41.9498 27.5942 41.9498 29.6382C41.9498 31.6822 40.1819 31.7036 39.8844 31.7036Z" fill="#005CFF"/>
<path d="M50.2113 23.4425C45.039 23.4425 45.0479 28.6059 45.0479 28.6059C45.0479 28.6059 44.7037 33.7692 50.2113 33.7692C50.2113 33.7692 55.0304 33.7692 55.0304 29.6385H52.2766C52.2766 29.6385 52.2766 31.7039 50.2113 31.7039C50.2113 31.7039 48.1459 31.7039 48.1459 28.9501C48.1459 28.9501 53.6535 28.9501 55.0304 28.9501C55.0304 27.5732 55.0304 23.4425 50.2113 23.4425ZM48.1459 27.5732C48.1459 27.5732 48.1005 25.5079 50.2113 25.5079C52.3214 25.5079 52.2766 27.5732 52.2766 27.5732H48.1459Z" fill="#005CFF"/>
<path d="M52.9652 21.377H47.4577V22.7539H52.9652V21.377Z" fill="#005CFF"/>
<path d="M306.693 31C306.884 31 307.045 30.9386 307.177 30.8159L310.755 27.5077C310.922 27.357 311 27.1953 311 27C311 26.8047 310.922 26.6374 310.761 26.4923L307.177 23.1841C307.045 23.0614 306.884 23 306.693 23C306.311 23 306 23.2845 306 23.6416C306 23.8201 306.078 23.9819 306.215 24.1158L309.357 27.0056L306.215 29.8898C306.078 30.0181 306 30.1799 306 30.3584C306 30.7155 306.311 31 306.693 31Z" fill="white"/>
</svg>
