<svg width="5" height="8" viewBox="0 0 5 8" fill="none" xmlns="http://www.w3.org/2000/svg">
<path d="M0.692951 8C0.88411 8 1.0454 7.93863 1.17682 7.8159L4.75508 4.50767C4.92234 4.35704 5 4.19526 5 4C5 3.80474 4.92234 3.63738 4.76105 3.49233L1.17682 0.1841C1.0454 0.0613668 0.88411 0 0.692951 0C0.310633 0 0 0.284519 0 0.641562C0 0.820084 0.0776583 0.981869 0.215054 1.11576L3.35723 4.00558L0.215054 6.88982C0.0776583 7.01813 0 7.17992 0 7.35844C0 7.71548 0.310633 8 0.692951 8Z" fill="white"/>
</svg>
