<svg width="430" height="147" viewBox="0 0 430 147" fill="none" xmlns="http://www.w3.org/2000/svg">
<path d="M93.7026 42.6321C93.5132 42.7222 93.4016 42.3464 93.5811 42.238C93.7605 42.1298 93.9903 42.229 94.1686 42.3391C95.7994 43.346 96.743 45.2256 97.0182 47.1222C97.2931 49.0188 96.9795 50.95 96.5744 52.8231C96.3327 53.9394 96.0541 55.0602 95.5353 56.0777C93.9911 59.1072 90.3996 60.7754 87.0061 60.5591C83.6125 60.3427 80.4744 58.4738 78.1716 55.9716" stroke="white" stroke-width="0.510638" stroke-miterlimit="0"/>
<path d="M94.7988 32.0515C96.4995 27.8492 98.2985 23.5013 101.632 20.4286C104.197 18.0642 107.479 16.641 110.288 14.5709C114.611 11.3843 117.67 6.77854 121.703 3.23129C125.736 -0.315954 131.582 -2.78031 136.447 -0.505777C141.902 2.0445 143.36 8.91363 146.166 14.2415C150.647 22.7503 159.904 28.9571 161.216 38.4834C161.736 42.2557 160.892 46.1036 161.284 49.8912C161.668 53.61 163.236 57.2081 163.013 60.9399C162.725 65.7627 159.518 69.9173 158.439 74.627C157.918 76.9021 157.905 79.2644 157.481 81.5597C156.235 88.3135 151.175 94.2291 144.696 96.5083C138.217 98.7871 130.568 97.3422 125.368 92.8566" stroke="white" stroke-width="0.510638" stroke-miterlimit="0"/>
<path d="M78.592 42.0134C79.9128 43.3855 82.1421 43.3052 83.9654 42.7556C85.7891 42.2061 87.5544 41.2829 89.459 41.2915C92.03 41.3032 94.2383 42.9841 96.4866 44.2313C102.56 47.6007 110.206 47.9772 116.581 45.2206C120.294 43.6157 123.506 41.058 127.034 39.0796C130.562 37.1012 134.703 35.6845 138.627 36.666C133.65 32.2475 126.398 31.8337 119.745 31.6458L103.248 31.1797C100.386 31.0989 97.4105 31.0393 94.7994 32.2133C93.4462 32.8214 92.2572 33.7344 90.99 34.5058M90.99 34.5058C85.7137 37.7191 78.4288 39.1158 76.1548 44.86C73.9507 50.4271 78.0209 56.7417 76.7795 62.5995L76.7733 62.8217C72.4955 67.9132 69.9446 68.7409 68.3772 68.4511C67.875 68.3581 66.6196 67.9557 65.5161 68.6047C64.7401 69.0615 64.4212 70.0006 63.8843 70.7236C61.6121 73.7832 56.6093 72.1554 53.1892 73.8375C52.0196 74.4125 51.083 75.3616 50.0226 76.1203C45.0114 79.7057 38.1678 78.6147 32.1331 77.3692C31.3868 77.215 30.5791 77.025 30.1006 76.4318C29.3348 75.4828 29.8119 74.068 30.4348 73.02C35.5628 64.3954 48.0302 61.4619 51.454 52.0305C52.3171 49.6527 52.493 47.0743 53.2927 44.6745C54.3345 41.5498 56.4364 38.6809 56.4669 35.3877C56.5121 30.4872 51.9243 26.0873 53.0339 21.3139C54.3155 15.802 62.4996 13.374 62.422 7.71541C62.3996 6.06816 61.6184 4.53773 61.2306 2.93649C60.4042 -0.475032 61.5078 -4.28723 64.0287 -6.72981C66.5495 -9.1726 70.3948 -10.1554 73.7787 -9.22175C76.7266 -8.40883 79.2954 -6.27242 82.3473 -6.08018C85.1474 -5.90355 87.753 -7.40085 90.4943 -7.99906C94.2903 -8.82726 98.4436 -7.8219 101.441 -5.34979C102.338 -4.60977 103.167 -3.68659 103.404 -2.54839C103.596 -1.62699 103.379 -0.674702 103.147 0.237287C100.322 11.3412 97.1633 16.3484 96.4692 17.6929C94.5509 21.4081 92.2738 26.9194 90.99 34.5058Z" stroke="white" stroke-width="0.510638" stroke-miterlimit="0"/>
<path d="M48.5204 57.1059C47.3091 55.7838 46.3117 55.5812 45.7368 55.575C45.3586 55.5706 44.9868 55.3236 42.5454 56.5007C42.1116 56.7096 41.6638 56.9337 41.1822 56.939C38.6036 56.9677 38.8143 51.6343 36.2359 51.676C35.1388 51.6938 34.3461 52.8144 33.2656 53.0035C31.9639 53.2314 30.8802 52.083 29.9813 51.1148C28.2976 49.3016 26.3405 47.7632 24.181 46.5552C23.4355 46.1382 22.5746 45.7514 21.7534 45.9867C20.9961 46.204 20.4739 46.906 20.169 47.6326C18.3991 51.8538 22.2756 56.5015 21.709 61.0434C21.4207 63.3546 20.7166 63.2748 20.6988 65.2596C20.6589 69.8138 24.1012 73.1482 24.867 73.8902C29.0506 77.9435 34.4156 78.0655 35.7943 78.0555" stroke="white" stroke-width="0.510638" stroke-miterlimit="0"/>
<path d="M138.299 36.384C138.634 36.581 138.942 36.8201 139.216 37.0956C140.706 38.6021 140.719 40.8019 140.705 42.1617C140.652 47.12 140.118 47.9822 140.254 50.1114C140.467 53.461 142.253 56.4682 143.657 59.5172C145.06 62.5658 146.109 66.1244 144.821 69.2236C143.27 72.953 139.035 74.5974 135.668 76.8273C131.028 79.9002 127.572 84.7144 126.144 90.093C125.511 92.4752 125.256 94.9772 124.249 97.2269C123.01 99.9978 120.719 102.172 118.233 103.913C115.815 105.606 110.47 108.776 96.773 109.529C91.178 109.837 83.2574 109.797 73.7938 108.149" stroke="white" stroke-width="0.510638" stroke-miterlimit="0"/>
<path d="M75.4902 48.7642C76.3764 50.9252 76.728 53.5379 78.0537 55.7435C81.5715 61.7446 86.5261 66.674 89.0699 73.0822C90.3401 76.9265 88.5382 80.5066 86.9416 83.9336C85.7555 87.0544 86.9248 90.3351 87.3252 93.8698C88.025 100.376 80.4408 102.199 75.9775 105.209C73.5144 107.046 72.5336 110.014 70.4289 111.903C69.4027 112.669 68.6826 113.845 67.018 113.859M67.018 113.859C71.2558 107.62 67.6851 113.745 67.018 113.859ZM67.018 113.859C71.2558 107.62 72.6666 99.0388 70.1662 91.8543C68.9336 88.3132 66.1991 84.2959 67.6942 80.4275C68.1926 79.1373 69.0255 78.1266 69.9867 77.2238C72.0489 75.2862 72.7834 75.2575 74.4255 73.3691C75.4515 72.1896 76.9014 70.5219 76.7742 68.3302C76.6725 66.5807 75.613 65.3131 75.055 64.7384" stroke="white" stroke-width="0.510638" stroke-miterlimit="0"/>
<path d="M88.9723 64.8341C91.0317 65.5043 92.3171 67.6001 92.8545 69.6983C93.3919 71.7962 93.3604 73.9986 93.7632 76.1266C94.7553 81.3663 98.5562 85.9871 103.506 87.9706" stroke="white" stroke-width="0.510638" stroke-miterlimit="0"/>
<path d="M85.0378 33.6461C83.4636 32.7455 83.3094 30.5554 83.5077 28.7528C83.8683 25.4886 84.7512 22.3037 86.1228 19.3198C87.2189 16.9366 88.6314 14.6685 89.2737 12.1252C89.9157 9.58203 89.6206 6.58467 87.7048 4.79305" stroke="white" stroke-width="0.510638" stroke-miterlimit="0"/>
<path d="M72.9767 47.5428C71.1137 48.4782 70.5947 50.8886 70.5997 52.9728C70.6046 55.0574 70.8809 57.2899 69.8407 59.0963C69.0187 60.5241 67.5214 61.4045 66.0902 62.2206L55.8419 68.065" stroke="white" stroke-width="0.510638" stroke-miterlimit="0"/>
<path d="M102.121 28.2103C101.896 25.7406 103.971 23.6093 106.224 22.5739C108.477 21.5386 111.006 21.2192 113.267 20.2001C116.417 18.7801 118.911 15.9717 119.949 12.6753" stroke="white" stroke-width="0.510638" stroke-miterlimit="0"/>
<path d="M78.9204 63.3248C79.2853 66.45 82.2272 68.541 83.8359 71.245C85.1738 73.4945 85.5728 76.2834 84.9191 78.8177" stroke="white" stroke-width="0.510638" stroke-miterlimit="0"/>
<path d="M88.6023 38.7442C90.6367 38.112 92.7499 37.769 94.8797 37.7253C95.85 37.7057 96.8608 37.7586 97.7153 38.2185C98.6932 38.7449 99.3252 39.7224 100.037 40.5752C102.497 43.5245 106.374 45.2342 110.21 45.0614" stroke="white" stroke-width="0.510638" stroke-miterlimit="0"/>
<path d="M30.5577 71.8275C28.2984 69.9818 27.7164 66.7733 27.7348 63.8561C27.753 60.9388 28.2062 57.9532 27.4033 55.1487" stroke="white" stroke-width="0.510638" stroke-miterlimit="0"/>
<path d="M99.2007 49.231C100.224 50.2484 101.797 50.4902 103.236 50.3831C104.675 50.2759 106.085 49.8768 107.528 49.8317C110.061 49.7523 112.487 50.7607 114.82 51.7508L120.359 54.1012" stroke="white" stroke-width="0.510638" stroke-miterlimit="0"/>
<path d="M275.151 -14.243C278.638 -14.9962 282.266 -15.7515 285.842 -15.0341C288.595 -14.4818 291.106 -13.0945 293.792 -12.2697C297.927 -10.9997 302.336 -11.0999 306.556 -10.1595C310.776 -9.21915 315.203 -6.71834 316.159 -2.79946C317.23 1.59439 313.612 5.39714 311.628 9.36323C308.461 15.6972 309.093 23.9514 303.727 28.7948C301.602 30.7126 298.759 31.8354 296.562 33.6823C294.404 35.4954 292.904 37.9755 290.44 39.4254C287.255 41.2995 283.058 41.1179 279.556 42.4642C277.864 43.1146 276.367 44.1101 274.711 44.8281C269.837 46.9406 263.618 46.3831 258.996 43.4197C254.375 40.4562 251.528 35.2006 251.804 30.1391" stroke="white" stroke-width="0.510638" stroke-miterlimit="0"/>
<path d="M260.902 -19.8462C260.685 -18.4618 261.831 -17.1431 263.073 -16.2701C264.316 -15.3968 265.766 -14.7177 266.697 -13.5583C267.952 -11.993 267.977 -9.9389 268.295 -8.04468C269.153 -2.92737 272.672 1.8721 277.544 4.57018C280.381 6.14146 283.573 7.00406 286.555 8.30467C289.537 9.60528 292.465 11.5164 293.774 14.3146C294.117 9.41725 290.815 4.84072 287.664 0.723472L279.852 -9.48626C278.497 -11.2572 277.073 -13.0882 275.049 -14.174C274 -14.7369 272.84 -15.0705 271.731 -15.5118M271.731 -15.5118C267.11 -17.3487 262.65 -21.1762 257.908 -20.116C253.312 -19.0885 251.327 -13.936 247.021 -12.2008L246.878 -12.1101C241.563 -12.5432 239.788 -13.7395 239.2 -14.8138C239.012 -15.1581 238.65 -16.0909 237.698 -16.4849C237.028 -16.7617 236.279 -16.5563 235.559 -16.575C232.512 -16.6541 231.081 -20.3816 228.339 -21.7425C227.402 -22.208 226.342 -22.3732 225.343 -22.6944C220.618 -24.2123 217.944 -28.8288 215.765 -33.0201C215.495 -33.5385 215.218 -34.1094 215.357 -34.6517C215.58 -35.5196 216.707 -35.8311 217.674 -35.8983C225.636 -36.4503 233.613 -30.1306 241.247 -32.0595C243.171 -32.5458 244.884 -33.5345 246.792 -34.0686C249.275 -34.7639 252.118 -34.7071 254.211 -36.0876C257.326 -38.142 257.848 -42.7952 261.405 -44.1498C265.512 -45.7136 271.066 -41.7785 274.598 -44.2294C275.627 -44.9428 276.208 -46.0671 277.028 -46.9826C278.775 -48.9334 281.723 -49.8832 284.503 -49.391C287.283 -48.899 289.792 -46.983 290.866 -44.5328C291.801 -42.3986 291.715 -39.9321 293.094 -37.9984C294.358 -36.2241 296.583 -35.2789 298.307 -33.8695C300.695 -31.9177 302.101 -28.9702 302.014 -26.1012C301.988 -25.2425 301.813 -24.3471 301.211 -23.7196C300.724 -23.2116 300.017 -22.9386 299.327 -22.692C290.933 -19.6894 286.221 -19.4792 285.032 -19.3292C281.745 -18.9151 277.148 -17.9556 271.731 -15.5118Z" stroke="white" stroke-width="0.510638" stroke-miterlimit="0"/>
<path d="M293.791 13.9959C293.831 14.2826 293.831 14.5711 293.792 14.8542C293.574 16.3989 292.192 17.3411 291.327 17.91C288.172 19.9845 287.366 20.0267 286.089 21.0136C284.08 22.5661 283.06 24.9276 281.826 27.0747C280.592 29.2213 278.862 31.3694 276.273 31.9042C273.158 32.5478 270.04 30.6764 266.978 29.5802C262.759 28.0698 258.023 28.0175 253.928 29.4358C252.114 30.0641 250.409 30.9718 248.495 31.3169C246.138 31.7418 243.641 31.2751 241.32 30.5061C239.064 29.7583 234.438 27.8613 227.232 19.8689C224.289 16.6043 220.423 11.7806 216.812 5.33779" stroke="white" stroke-width="0.510638" stroke-miterlimit="0"/>
<path d="M255.118 -18.8605C254.189 -17.4047 252.714 -16.0814 251.973 -14.3399C249.915 -9.65575 249.239 -4.55494 246.445 -0.288937C244.644 2.11499 241.5 2.54243 238.553 3.0294C236.001 3.6354 234.505 5.73864 232.471 7.48322C228.71 10.6717 223.833 6.84396 219.741 5.41396C217.371 4.69973 215.017 5.36525 212.79 4.89064C211.803 4.59305 210.707 4.65565 209.88 3.65171M209.88 3.65171C215.899 3.5729 210.28 4.00812 209.88 3.65171ZM209.88 3.65171C215.899 3.5729 222.007 0.78357 225.312 -3.78595C226.941 -6.03822 228.132 -9.40432 231.308 -10.1404C232.367 -10.386 233.414 -10.31 234.456 -10.1102C236.692 -9.68182 237.07 -9.24833 239.069 -9.054C240.317 -8.9325 242.082 -8.76106 243.402 -9.76936C244.456 -10.5742 244.736 -11.7557 244.824 -12.3385" stroke="white" stroke-width="0.510638" stroke-miterlimit="0"/>
<path d="M251.602 -3.85244C252.191 -2.31791 251.5 -0.64756 250.44 0.569901C249.381 1.78724 247.975 2.70377 246.831 3.85221C244.012 6.68018 242.964 10.9497 244.144 14.7965" stroke="white" stroke-width="0.510638" stroke-miterlimit="0"/>
<path d="M247.616 -10.5935C245.823 -9.04447 245.949 -6.37087 245.033 -4.24591C244.271 -2.47833 242.708 -1.05144 240.787 -0.371541" stroke="white" stroke-width="0.510638" stroke-miterlimit="0"/>
<path d="M267.883 -15.1605C269.281 -14.1945 270.536 -13.0578 271.61 -11.7839C272.099 -11.2034 272.563 -10.5675 272.692 -9.85355C272.841 -9.03653 272.534 -8.23769 272.346 -7.44362C271.694 -4.69797 272.52 -1.61859 274.514 0.636131" stroke="white" stroke-width="0.510638" stroke-miterlimit="0"/>
<path d="M266.473 -4.27363C266.334 -3.22022 266.954 -2.16341 267.729 -1.33559C268.504 -0.507712 269.448 0.178424 270.186 1.03465C271.481 2.53834 272.036 4.43883 272.558 6.27528L273.796 10.6353" stroke="white" stroke-width="0.510638" stroke-miterlimit="0"/>
<path d="M387.525 87.6214C387.495 87.5139 387.702 87.4895 387.743 87.5936C387.783 87.6975 387.71 87.8091 387.636 87.8925C386.959 88.6561 385.887 88.9793 384.867 88.9505C383.847 88.9215 382.862 88.5806 381.917 88.1969C381.353 87.9681 380.791 87.7195 380.304 87.3545C378.856 86.2676 378.309 84.2311 378.732 82.4707C379.156 80.7103 380.423 79.2347 381.946 78.2553" stroke="white" stroke-width="0.510638" stroke-miterlimit="0" stroke-linecap="round" stroke-linejoin="round"/>
<path d="M392.306 87.5853C396.09 88.6366 398.677 90.1465 400.355 91.3512C401.215 91.9685 403.489 94.022 408.902 96.4491C409.359 96.6541 409.839 96.8549 410.34 96.8383C410.959 96.8177 411.519 96.4672 411.989 96.0643C413.559 94.7178 414.466 92.6308 414.378 90.5638C414.315 89.0711 413.768 87.5676 414.116 86.1148C414.496 84.5313 415.851 83.379 416.547 81.9067C417.346 80.2169 417.182 78.1099 416.13 76.5644C415.079 75.0188 413.18 74.0916 411.315 74.2135C410.44 74.2707 409.566 74.5407 408.699 74.4019C405.724 73.9256 405.198 69.4104 402.423 68.2347C400.021 67.2164 397.294 69.2212 394.727 68.75C393.002 68.4331 391.689 67.0683 390.145 66.2364C388.959 65.5975 387.623 65.2698 386.454 64.5996C381.819 61.9419 381.42 55.1337 377.364 51.656C376.871 51.2331 376.172 50.8537 375.604 51.1687C375.25 51.3656 375.076 51.772 374.927 52.1494C373.722 55.2012 372.525 58.6917 373.948 61.6481C374.249 62.2736 374.661 62.8516 374.856 63.5178C375.426 65.4656 374.115 67.9412 375.513 69.4127C375.843 69.7605 376.306 70.0135 376.475 70.4624C376.715 71.1004 376.389 71.7224 376.294 71.9772C375.999 72.7732 376.2 74.1868 378.48 76.8962" stroke="white" stroke-width="0.510638" stroke-miterlimit="0" stroke-linecap="round" stroke-linejoin="round"/>
<path d="M392.975 89.1633C395.024 90.4394 397.141 91.7802 398.448 93.8096C399.454 95.3712 399.901 97.2232 400.73 98.8855C402.007 101.445 404.144 103.47 405.636 105.91C407.128 108.349 407.887 111.641 406.249 113.986C404.413 116.615 400.677 116.752 397.625 117.737C392.752 119.31 388.651 123.599 383.533 123.417C381.507 123.345 379.565 122.551 377.543 122.411C375.557 122.273 373.526 122.767 371.589 122.309C369.085 121.717 367.199 119.655 364.827 118.659C363.681 118.178 362.443 117.955 361.277 117.523C357.848 116.252 355.207 113.057 354.603 109.45C354 105.843 355.457 101.963 358.285 99.6444" stroke="white" stroke-width="0.510638" stroke-miterlimit="0" stroke-linecap="round" stroke-linejoin="round"/>
<path d="M378.596 76.9198C381.556 78.1061 385.24 76.548 387.959 78.2128C390.765 79.9304 390.832 83.8796 392.036 86.941C392.325 87.6761 392.695 88.3834 392.89 89.1487C393.268 90.6258 392.965 92.1813 392.661 93.675L390.909 102.287C390.203 105.76 389.323 109.526 386.551 111.734C387.424 109.765 387.059 107.463 386.343 105.431C385.628 103.4 384.58 101.481 384.077 99.387C383.213 95.7906 384.109 91.8144 386.432 88.9359C387.292 87.8704 388.375 86.8656 388.616 85.518C388.795 84.5196 388.472 83.5093 388.35 82.5024C388.228 81.4955 388.39 80.3188 389.23 79.7514" stroke="white" stroke-width="0.510638" stroke-miterlimit="0" stroke-linecap="round" stroke-linejoin="round"/>
<path d="M388.329 109.986C387.288 111.555 385.354 112.486 383.478 112.322C382.067 112.198 380.756 111.512 379.349 111.359C377.572 111.165 375.831 111.827 374.104 112.285C372.376 112.742 370.413 112.967 368.905 112.009C367.091 110.854 366.615 108.483 365.753 106.513C364.564 103.798 362.355 101.545 359.664 100.304C358.472 99.7548 357.183 99.3923 356.094 98.6588C354.754 97.7554 353.823 96.355 353.137 94.8916C351.429 91.251 351.073 86.9949 352.151 83.1211C353.262 79.1293 355.855 75.2412 354.974 71.1925" stroke="white" stroke-width="0.510638" stroke-miterlimit="0" stroke-linecap="round" stroke-linejoin="round"/>
<path d="M385.972 77.5074C384.207 77.6343 382.844 77.9772 381.946 78.2556C379.138 79.1266 378.276 80.1796 374.687 81.5115C372.783 82.2178 371.839 82.5071 370.994 82.4421C368.488 82.249 366.606 79.7677 364.098 79.5783C362.992 79.4948 361.866 79.8758 360.781 79.6413C359.196 79.2986 358.17 77.7539 357.598 76.2364C357.026 74.7187 356.714 73.0643 355.758 71.7538C354.629 70.2041 352.587 69.0338 352.598 67.116C355.738 70.156 360.413 71.5215 364.695 70.6499C366.416 70.2995 368.266 69.6271 369.849 70.3868C371.439 71.1501 372.07 73.0288 373.01 74.5219C373.95 76.0153 376.023 77.2753 377.378 76.146" stroke="white" stroke-width="0.510638" stroke-miterlimit="0" stroke-linecap="round" stroke-linejoin="round"/>
<path d="M376.31 83.1116C375.77 84.1306 374.553 84.6134 373.404 84.7037C372.254 84.7941 371.102 84.5762 369.949 84.5933C367.109 84.635 364.338 86.2067 362.845 88.6223" stroke="white" stroke-width="0.510638" stroke-miterlimit="0" stroke-linecap="round" stroke-linejoin="round"/>
<path d="M393.03 83.8969C393.646 83.1534 394.809 83.2725 395.737 83.5412C397.416 84.0287 399.006 84.7829 400.447 85.7749C401.596 86.5677 402.657 87.5158 403.933 88.0851C405.208 88.6543 406.807 88.7732 407.923 87.9319" stroke="white" stroke-width="0.510638" stroke-miterlimit="0" stroke-linecap="round" stroke-linejoin="round"/>
<path d="M386.842 76.3003C386.522 75.2377 385.305 74.7451 384.211 74.5572C383.117 74.3695 381.92 74.3102 381.068 73.5996C380.394 73.0379 380.069 72.1722 379.771 71.3466L377.642 65.4368" stroke="white" stroke-width="0.510638" stroke-miterlimit="0" stroke-linecap="round" stroke-linejoin="round"/>
<path d="M394.321 93.3549C395.637 93.4627 396.566 94.7458 396.903 96.0226C397.24 97.2991 397.177 98.6547 397.505 99.9338C397.962 101.716 399.207 103.281 400.842 104.127" stroke="white" stroke-width="0.510638" stroke-miterlimit="0" stroke-linecap="round" stroke-linejoin="round"/>
<path d="M378.021 77.9762C376.348 77.8822 374.982 79.2344 373.417 79.8313C372.114 80.3277 370.615 80.2822 369.345 79.7076" stroke="white" stroke-width="0.510638" stroke-miterlimit="0" stroke-linecap="round" stroke-linejoin="round"/>
<path d="M390.03 85.3009C390.176 86.4259 390.163 87.5658 389.991 88.6871C389.913 89.1979 389.793 89.7233 389.474 90.1295C389.108 90.5945 388.538 90.8368 388.025 91.132C386.254 92.1531 385.002 94.0307 384.742 96.0592" stroke="white" stroke-width="0.510638" stroke-miterlimit="0" stroke-linecap="round" stroke-linejoin="round"/>
<path d="M383.561 89.9029C382.934 90.3469 382.663 91.1496 382.588 91.9144C382.513 92.6792 382.593 93.4553 382.485 94.2162C382.295 95.5524 381.545 96.7328 380.812 97.8664L379.073 100.558" stroke="white" stroke-width="0.510638" stroke-miterlimit="0" stroke-linecap="round" stroke-linejoin="round"/>
</svg>
