<svg width="246" height="200" viewBox="0 0 246 200" fill="none" xmlns="http://www.w3.org/2000/svg">
<path d="M116.037 99.2452C116.268 99.3352 116.035 99.7348 115.797 99.6679C115.559 99.6011 115.458 99.3231 115.409 99.081C114.957 96.8647 115.812 94.5346 117.221 92.7655C118.631 90.9964 120.545 89.7063 122.484 88.5413C123.639 87.8474 124.829 87.1818 126.123 86.8057C129.977 85.6867 134.313 87.4286 136.869 90.5223C139.424 93.6164 140.352 97.8257 140.06 101.828" stroke="white" stroke-width="0.510638" stroke-miterlimit="0" stroke-linecap="round" stroke-linejoin="round"/>
<path d="M109.737 107.764C102.836 113.07 96.7171 115.643 92.3483 117.014C90.1097 117.715 83.4433 119.012 71.9375 125.371C70.9658 125.908 69.971 126.491 69.3339 127.401C68.5464 128.525 68.422 129.983 68.5101 131.353C68.8049 135.929 71.2958 140.313 75.075 142.91C77.8043 144.785 81.1973 145.816 83.3075 148.367C85.6079 151.148 85.8453 155.084 87.5276 158.277C89.4583 161.942 93.4105 164.455 97.5482 164.65C101.686 164.846 105.857 162.715 108.124 159.248C109.188 157.621 109.873 155.712 111.272 154.362C116.077 149.724 124.778 154.803 130.555 151.452C135.557 148.55 135.636 141.049 139.887 137.129C142.745 134.494 146.911 133.985 150.441 132.356C153.151 131.105 155.511 129.173 158.254 127.995C169.133 123.321 181.729 131.675 193.291 129.119C194.696 128.808 196.298 128.075 196.496 126.65C196.619 125.759 196.13 124.911 195.66 124.144C191.857 117.947 187.266 111.178 180.133 109.764C178.624 109.465 177.051 109.426 175.611 108.885C171.401 107.301 168.76 101.683 164.292 102.2C163.236 102.322 162.171 102.807 161.151 102.508C159.701 102.084 159.033 100.678 158.707 100.171C157.69 98.5888 154.917 97.0631 147.081 97.4965" stroke="white" stroke-width="0.510638" stroke-miterlimit="0" stroke-linecap="round" stroke-linejoin="round"/>
<path d="M106.05 106.849C101.061 108.782 95.8677 110.747 90.5315 110.362C86.4251 110.066 82.549 108.392 78.4995 107.648C72.2657 106.503 65.8321 107.593 59.5224 106.99C53.2131 106.386 46.3702 103.348 44.3961 97.3256C42.1824 90.5727 46.9138 83.769 49.23 77.0511C52.9295 66.3223 50.7901 53.345 57.9245 44.5198C60.7498 41.0253 64.7412 38.6419 67.6829 35.2451C70.5711 31.9097 72.3998 27.6542 75.79 24.831C80.1715 21.1825 86.337 20.5855 91.2591 17.7081C93.6372 16.3181 95.6801 14.421 97.9967 12.9307C104.814 8.54726 113.99 8.12058 121.185 11.8525C128.379 15.5844 133.316 23.3315 133.659 31.4294" stroke="white" stroke-width="0.510638" stroke-miterlimit="0" stroke-linecap="round" stroke-linejoin="round"/>
<path d="M146.885 97.6708C140.844 101.335 138.7 109.938 132.13 112.54C125.352 115.225 118.265 110.086 111.238 108.143C109.551 107.677 107.805 107.391 106.188 106.719C103.069 105.421 100.716 102.813 98.4741 100.286L85.5462 85.7179C80.3331 79.8431 74.8302 73.2708 74.6102 65.4197C76.936 69.5883 81.5003 72.0056 86.0527 73.4422C90.6047 74.8788 95.3997 75.5758 99.7802 77.4727C107.302 80.7302 113.155 87.611 115.164 95.5581C115.907 98.4999 116.245 101.757 118.312 103.978C119.843 105.624 122.064 106.396 124.01 107.521C125.956 108.646 127.826 110.498 127.712 112.743" stroke="white" stroke-width="0.510638" stroke-miterlimit="0" stroke-linecap="round" stroke-linejoin="round"/>
<path d="M75.3412 70.8974C73.9458 66.9624 74.8699 62.2975 77.6601 59.1922C79.7573 56.8584 82.717 55.4464 84.863 53.1573C87.572 50.2674 88.7155 46.3013 90.2046 42.631C91.6933 38.9607 93.9075 35.1837 97.6138 33.7879C102.075 32.1087 106.911 34.4233 111.549 35.5182C117.941 37.027 124.875 36.1109 130.656 32.9942C133.216 31.6135 135.574 29.8119 138.323 28.8602C141.708 27.6878 145.429 27.902 148.935 28.634C157.659 30.4552 165.674 35.4898 171.103 42.5569C176.697 49.8396 180.135 59.6097 188.481 63.439" stroke="white" stroke-width="0.510638" stroke-miterlimit="0" stroke-linecap="round" stroke-linejoin="round"/>
<path d="M136.026 109.957C138.151 106.661 139.359 103.789 140.06 101.828C142.256 95.6919 141.536 92.7637 143.955 84.6303C145.237 80.3175 145.982 78.259 147.222 76.849C150.901 72.6645 157.803 72.6329 161.476 68.4427C163.097 66.5932 163.921 64.0909 165.78 62.4812C168.497 60.1288 172.6 60.3668 176.051 61.3739C179.501 62.3806 182.848 64.0295 186.442 64.0812C190.692 64.1423 195.484 62.0827 198.867 64.6553C189.301 66.1717 180.658 72.6373 176.502 81.3857C174.832 84.9005 173.561 89.0738 170.107 90.8673C166.637 92.6698 162.468 91.2868 158.572 90.9644C154.675 90.6415 149.682 92.6374 149.879 96.5425" stroke="white" stroke-width="0.510638" stroke-miterlimit="0" stroke-linecap="round" stroke-linejoin="round"/>
<path d="M138.958 85.3774C137.871 83.0642 138.635 80.2656 140.006 78.1084C141.376 75.9507 143.296 74.1989 144.801 72.1329C148.507 67.0467 149.411 60.0437 147.118 54.1829" stroke="white" stroke-width="0.510638" stroke-miterlimit="0" stroke-linecap="round" stroke-linejoin="round"/>
<path d="M115.308 113.958C115.805 116.04 114.046 117.942 112.335 119.228C109.236 121.554 105.782 123.368 102.107 124.599C99.1719 125.581 96.0798 126.199 93.373 127.701C90.6665 129.204 88.327 131.879 88.3332 134.974" stroke="white" stroke-width="0.510638" stroke-miterlimit="0" stroke-linecap="round" stroke-linejoin="round"/>
<path d="M137.006 113.106C139.315 113.953 141.808 112.452 143.597 110.764C145.386 109.076 147.084 107.035 149.478 106.47C151.37 106.024 153.337 106.6 155.196 107.172L168.502 111.266" stroke="white" stroke-width="0.510638" stroke-miterlimit="0" stroke-linecap="round" stroke-linejoin="round"/>
<path d="M96.8316 103.654C94.8886 105.843 91.379 105.78 88.6676 104.678C85.9569 103.576 83.6393 101.659 80.9363 100.538C77.1692 98.9746 72.7384 99.0982 69.0646 100.869" stroke="white" stroke-width="0.510638" stroke-miterlimit="0" stroke-linecap="round" stroke-linejoin="round"/>
<path d="M145.781 95.2438C148.174 92.4048 147.596 88.1852 148.623 84.6166C149.477 81.6484 151.553 79.052 154.262 77.567" stroke="white" stroke-width="0.510638" stroke-miterlimit="0" stroke-linecap="round" stroke-linejoin="round"/>
<path d="M116.814 106.773C114.627 105.534 112.624 103.993 110.866 102.196C110.065 101.378 109.294 100.465 109 99.3587C108.662 98.0922 108.992 96.7589 109.151 95.4577C109.701 90.9591 108.039 86.2427 104.791 83.0815" stroke="white" stroke-width="0.510638" stroke-miterlimit="0" stroke-linecap="round" stroke-linejoin="round"/>
<path d="M117.272 89.1842C117.32 87.4817 116.258 85.9339 115.003 84.7825C113.748 83.6307 112.266 82.7405 111.062 81.536C108.947 79.421 107.854 76.5196 106.821 73.7125L104.368 67.0485" stroke="white" stroke-width="0.510638" stroke-miterlimit="0" stroke-linecap="round" stroke-linejoin="round"/>
<path d="M68.4828 127.396C68.6383 127.351 68.6764 127.651 68.5259 127.712C68.3756 127.771 68.2129 127.667 68.0909 127.561C66.9744 126.588 66.4917 125.037 66.5203 123.557C66.5491 122.077 67.0309 120.645 67.5752 119.268C67.8997 118.448 68.253 117.629 68.7762 116.918C70.3341 114.804 73.281 113.984 75.84 114.575C78.3991 115.167 80.5559 116.986 81.9963 119.182" stroke="white" stroke-width="0.510638" stroke-miterlimit="0" stroke-linecap="round" stroke-linejoin="round"/>
<path d="M68.597 134.33C67.1211 139.833 64.9644 143.605 63.2388 146.055C62.3545 147.311 59.4052 150.637 55.9548 158.519C55.6634 159.185 55.3783 159.884 55.4089 160.61C55.4468 161.507 55.9624 162.315 56.5529 162.992C58.5265 165.253 61.5655 166.541 64.5627 166.387C66.7272 166.276 68.901 165.462 71.0128 165.948C73.3147 166.479 75.0037 168.43 77.1484 169.42C79.6099 170.557 82.664 170.291 84.8923 168.747C87.1206 167.202 88.4409 164.435 88.2398 161.731C88.1456 160.462 87.7426 159.198 87.9326 157.939C88.5851 153.617 95.1276 152.796 96.7972 148.756C98.243 145.258 95.2997 141.328 95.9499 137.599C96.3872 135.092 98.3499 133.17 99.5365 130.92C100.448 129.191 100.906 127.248 101.863 125.545C105.658 118.787 115.528 118.119 120.52 112.191C121.127 111.47 121.669 110.452 121.204 109.632C120.914 109.12 120.322 108.874 119.773 108.662C115.331 106.954 110.252 105.263 105.982 107.365C105.079 107.81 104.245 108.416 103.282 108.707C100.464 109.559 96.8558 107.689 94.7394 109.736C94.2391 110.219 93.8781 110.895 93.2293 111.145C92.3069 111.501 91.4004 111.037 91.0295 110.903C89.8712 110.485 87.8232 110.795 83.9227 114.137" stroke="white" stroke-width="0.510638" stroke-miterlimit="0" stroke-linecap="round" stroke-linejoin="round"/>
<path d="M66.3168 135.322C64.4923 138.311 62.5748 141.398 59.648 143.321C57.3959 144.8 54.7153 145.472 52.3148 146.697C48.6193 148.582 45.7089 151.708 42.1893 153.904C38.67 156.1 33.9047 157.244 30.4827 154.899C26.6457 152.269 26.3983 146.851 24.9296 142.438C22.5843 135.389 16.3098 129.495 16.5072 122.07C16.5855 119.13 17.7119 116.303 17.8896 113.368C18.0639 110.485 17.3214 107.546 17.9605 104.73C18.7863 101.09 21.7534 98.3271 23.1671 94.8735C23.8501 93.205 24.1573 91.4062 24.7685 89.7101C26.5681 84.7196 31.1679 80.8474 36.392 79.9249C41.6159 79.0026 47.2638 81.0654 50.6636 85.1378" stroke="white" stroke-width="0.510638" stroke-miterlimit="0" stroke-linecap="round" stroke-linejoin="round"/>
<path d="M83.8903 114.306C82.2079 118.614 84.5159 123.938 82.1362 127.904C79.6811 131.996 73.9535 132.145 69.5283 133.93C68.4658 134.359 67.4446 134.905 66.337 135.199C64.1993 135.765 61.9391 135.346 59.7685 134.924L47.2535 132.495C42.2068 131.515 36.7321 130.289 33.4944 126.295C36.3616 127.537 39.6956 126.977 42.6333 125.913C45.5708 124.849 48.3403 123.304 51.3717 122.547C56.5772 121.248 62.3565 122.496 66.5621 125.827C68.1188 127.061 69.5903 128.619 71.5482 128.951C72.9987 129.197 74.46 128.716 75.919 128.526C77.378 128.337 79.0868 128.555 79.9208 129.767" stroke="white" stroke-width="0.510638" stroke-miterlimit="0" stroke-linecap="round" stroke-linejoin="round"/>
<path d="M36.0535 128.852C33.7629 127.361 32.3874 124.569 32.6023 121.845C32.7639 119.798 33.7406 117.887 33.9453 115.843C34.2037 113.263 33.2203 110.747 32.5342 108.247C31.8478 105.747 31.4961 102.903 32.8672 100.703C34.5178 98.0557 37.9521 97.3349 40.7987 96.0587C44.7213 94.3 47.9606 91.0656 49.7253 87.146C50.5066 85.41 51.0158 83.5353 52.0657 81.9472C53.3587 79.9913 55.378 78.6223 57.4918 77.6078C62.7505 75.084 68.9196 74.512 74.5527 76.0256C80.3574 77.5855 86.0308 81.296 91.8923 79.966" stroke="white" stroke-width="0.510638" stroke-miterlimit="0" stroke-linecap="round" stroke-linejoin="round"/>
<path d="M83.1338 125.012C82.9268 122.454 82.4118 120.48 81.9963 119.182C80.6964 115.119 79.1578 113.883 77.1793 108.694C76.13 105.942 75.6982 104.576 75.7815 103.35C76.029 99.7113 79.604 96.9491 79.8462 93.31C79.953 91.7038 79.3856 90.0756 79.7118 88.4991C80.1884 86.1954 82.4156 84.6869 84.6095 83.8378C86.8035 82.9883 89.1992 82.5138 91.0878 81.1109C93.3211 79.4519 94.9921 76.4753 97.7741 76.4665C93.4053 81.0602 91.4851 87.8591 92.8051 94.0596C93.3356 96.5507 94.3349 99.2256 93.2535 101.532C92.1669 103.849 89.4499 104.789 87.2963 106.171C85.1423 107.554 83.3415 110.577 84.9971 112.529" stroke="white" stroke-width="0.510638" stroke-miterlimit="0" stroke-linecap="round" stroke-linejoin="round"/>
<path d="M74.8791 111.07C73.394 110.3 72.6779 108.541 72.532 106.875C72.386 105.208 72.6871 103.534 72.6473 101.862C72.5501 97.7437 70.2342 93.7441 66.7109 91.61" stroke="white" stroke-width="0.510638" stroke-miterlimit="0" stroke-linecap="round" stroke-linejoin="round"/>
<path d="M73.9567 135.334C75.0432 136.218 74.8855 137.906 74.5077 139.255C73.8224 141.697 72.7491 144.014 71.3288 146.116C70.1937 147.794 68.8322 149.345 68.0229 151.203C67.2139 153.06 67.0621 155.381 68.2968 156.988" stroke="white" stroke-width="0.510638" stroke-miterlimit="0" stroke-linecap="round" stroke-linejoin="round"/>
<path d="M84.8957 126.259C86.4329 125.781 87.1317 124.009 87.39 122.42C87.6481 120.83 87.7185 119.094 88.7383 117.848C89.5444 116.863 90.7958 116.381 91.9896 115.939L100.534 112.773" stroke="white" stroke-width="0.510638" stroke-miterlimit="0" stroke-linecap="round" stroke-linejoin="round"/>
<path d="M60.2544 137.328C60.1151 139.239 58.266 140.602 56.4182 141.108C54.571 141.614 52.6038 141.539 50.7527 142.032C48.1729 142.718 45.9191 144.545 44.7141 146.927" stroke="white" stroke-width="0.510638" stroke-miterlimit="0" stroke-linecap="round" stroke-linejoin="round"/>
<path d="M82.3506 113.484C82.4652 111.056 80.4861 109.093 79.6 106.83C78.8631 104.947 78.9096 102.772 79.7266 100.922" stroke="white" stroke-width="0.510638" stroke-miterlimit="0" stroke-linecap="round" stroke-linejoin="round"/>
<path d="M71.8816 131C70.2517 131.226 68.598 131.222 66.9693 130.987C66.2274 130.88 65.4636 130.713 64.8703 130.255C64.1911 129.731 63.8322 128.907 63.3974 128.167C61.8932 125.61 59.1534 123.82 56.2076 123.469" stroke="white" stroke-width="0.510638" stroke-miterlimit="0" stroke-linecap="round" stroke-linejoin="round"/>
<path d="M65.1224 121.676C64.4702 120.772 63.3024 120.39 62.192 120.29C61.0816 120.191 59.957 120.318 58.8518 120.171C56.9112 119.913 55.1891 118.84 53.5354 117.792L49.6092 115.304" stroke="white" stroke-width="0.510638" stroke-miterlimit="0" stroke-linecap="round" stroke-linejoin="round"/>
<path d="M189.095 78.3917C189.124 78.5092 188.899 78.5294 188.858 78.4153C188.817 78.3013 188.9 78.1825 188.982 78.0943C189.74 77.2862 190.912 76.9676 192.018 77.0293C193.124 77.0912 194.181 77.4903 195.195 77.9347C195.8 78.1997 196.402 78.4861 196.919 78.8966C198.457 80.1187 198.99 82.3439 198.478 84.2407C197.966 86.1376 196.548 87.7003 194.867 88.7172" stroke="white" stroke-width="0.510638" stroke-miterlimit="0" stroke-linecap="round" stroke-linejoin="round"/>
<path d="M183.908 78.2879C179.835 77.0347 177.074 75.3198 175.289 73.9631C174.375 73.2678 171.969 70.9726 166.171 68.1784C165.681 67.9425 165.167 67.7103 164.623 67.7134C163.951 67.7173 163.333 68.0807 162.811 68.5037C161.067 69.9174 160.022 72.154 160.055 74.3986C160.079 76.0197 160.628 77.6668 160.207 79.2322C159.748 80.9385 158.243 82.1478 157.445 83.7241C156.528 85.5331 156.643 87.8234 157.737 89.5311C158.831 91.2389 160.863 92.3013 162.89 92.2247C163.841 92.1889 164.797 91.9221 165.733 92.0984C168.946 92.7039 169.382 97.617 172.356 98.9751C174.932 100.151 177.95 98.0581 180.72 98.6458C182.581 99.041 183.964 100.561 185.614 101.509C186.882 102.237 188.322 102.633 189.569 103.394C194.517 106.415 194.748 113.812 199.043 117.705C199.565 118.178 200.312 118.611 200.937 118.286C201.327 118.083 201.528 117.648 201.701 117.243C203.099 113.968 204.502 110.218 203.046 106.969C202.738 106.282 202.308 105.642 202.117 104.914C201.557 102.784 203.053 100.138 201.581 98.5002C201.233 98.1131 200.738 97.8248 200.568 97.3329C200.327 96.6337 200.699 95.9688 200.809 95.6952C201.153 94.8407 200.977 93.3013 198.585 90.2945" stroke="white" stroke-width="0.510638" stroke-miterlimit="0" stroke-linecap="round" stroke-linejoin="round"/>
<path d="M183.229 76.5566C181.045 75.1113 178.789 73.5938 177.431 71.3536C176.387 69.6297 175.957 67.6076 175.107 65.7798C173.799 62.966 171.542 60.7052 169.996 58.0144C168.45 55.3237 167.725 51.7305 169.572 49.2363C171.642 46.4397 175.699 46.4024 179.038 45.4248C184.37 43.8638 188.947 39.3341 194.492 39.6839C196.688 39.8226 198.77 40.7416 200.96 40.9544C203.11 41.1633 205.327 40.6884 207.415 41.2428C210.113 41.9593 212.098 44.2526 214.641 45.4035C215.87 45.9596 217.206 46.2382 218.457 46.7413C222.138 48.2225 224.908 51.7665 225.455 55.6968C226.002 59.6269 224.306 63.7926 221.169 66.2231" stroke="white" stroke-width="0.510638" stroke-miterlimit="0" stroke-linecap="round" stroke-linejoin="round"/>
<path d="M198.46 90.2656C195.285 88.8905 191.243 90.4707 188.343 88.5838C185.351 86.6371 185.396 82.3515 184.182 78.9949C183.89 78.189 183.51 77.4107 183.321 76.5748C182.955 74.9614 183.331 73.2832 183.705 71.6722L185.862 62.3831C186.732 58.6373 187.798 54.5782 190.871 52.2668C189.865 54.3763 190.192 56.8838 190.908 59.1088C191.623 61.3336 192.703 63.446 193.186 65.7327C194.015 69.6593 192.925 73.9454 190.32 76.9984C189.355 78.1285 188.15 79.186 187.849 80.6405C187.625 81.7181 187.945 82.8236 188.047 83.9194C188.149 85.0152 187.939 86.2866 187.011 86.877" stroke="white" stroke-width="0.510638" stroke-miterlimit="0" stroke-linecap="round" stroke-linejoin="round"/>
<path d="M188.891 54.1101C190.067 52.4384 192.192 51.4863 194.222 51.7212C195.748 51.8978 197.15 52.6799 198.672 52.8887C200.594 53.1521 202.502 52.4856 204.389 52.0408C206.277 51.5959 208.412 51.4105 210.019 52.4954C211.953 53.8014 212.398 56.3882 213.275 58.5509C214.483 61.531 216.812 64.0406 219.694 65.4666C220.971 66.0979 222.358 66.5297 223.517 67.3578C224.943 68.3776 225.912 69.9243 226.613 71.5322C228.356 75.5319 228.615 80.159 227.33 84.3286C226.006 88.6252 223.078 92.7652 223.912 97.183" stroke="white" stroke-width="0.510638" stroke-miterlimit="0" stroke-linecap="round" stroke-linejoin="round"/>
<path d="M190.478 89.4086C192.396 89.3236 193.885 88.9924 194.867 88.7171C197.939 87.8562 198.905 86.7397 202.839 85.4021C204.924 84.6928 205.957 84.4072 206.871 84.5029C209.584 84.7871 211.552 87.5347 214.266 87.8149C215.463 87.9385 216.696 87.5588 217.865 87.8456C219.575 88.2646 220.641 89.9706 221.216 91.6337C221.792 93.297 222.081 95.1007 223.078 96.5507C224.258 98.2654 226.437 99.5956 226.368 101.675C223.053 98.2845 218.023 96.6638 213.352 97.4815C211.475 97.8102 209.449 98.4843 207.754 97.6131C206.052 96.7377 205.423 94.6811 204.448 93.0335C203.474 91.3857 201.263 89.9572 199.759 91.1416" stroke="white" stroke-width="0.510638" stroke-miterlimit="0" stroke-linecap="round" stroke-linejoin="round"/>
<path d="M201.125 83.6179C201.741 82.5287 203.075 82.0414 204.324 81.9777C205.574 81.9139 206.818 82.1847 208.069 82.2005C211.15 82.24 214.203 80.6179 215.894 78.0423" stroke="white" stroke-width="0.510638" stroke-miterlimit="0" stroke-linecap="round" stroke-linejoin="round"/>
<path d="M183.012 82.2672C182.322 83.0553 181.064 82.8914 180.066 82.5723C178.259 81.9934 176.556 81.128 175.024 80.009C173.8 79.1148 172.678 78.0547 171.311 77.3991C169.945 76.7437 168.214 76.567 166.979 77.4463" stroke="white" stroke-width="0.510638" stroke-miterlimit="0" stroke-linecap="round" stroke-linejoin="round"/>
<path d="M189.497 90.6915C189.813 91.8536 191.119 92.4243 192.299 92.6607C193.48 92.8969 194.776 92.9969 195.68 93.7931C196.394 94.4225 196.721 95.3712 197.019 96.2756L199.152 102.749" stroke="white" stroke-width="0.510638" stroke-miterlimit="0" stroke-linecap="round" stroke-linejoin="round"/>
<path d="M181.895 71.97C180.47 71.8139 179.501 70.3945 179.174 68.9994C178.846 67.6048 178.955 66.1363 178.638 64.7391C178.195 62.792 176.891 61.0575 175.143 60.0918" stroke="white" stroke-width="0.510638" stroke-miterlimit="0" stroke-linecap="round" stroke-linejoin="round"/>
<path d="M199.117 89.1371C200.928 89.289 202.45 87.8631 204.166 87.2624C205.593 86.7628 207.218 86.8569 208.578 87.518" stroke="white" stroke-width="0.510638" stroke-miterlimit="0" stroke-linecap="round" stroke-linejoin="round"/>
<path d="M186.308 80.8339C186.183 79.6093 186.232 78.3733 186.452 77.1622C186.552 76.6105 186.697 76.0441 187.056 75.6131C187.466 75.1196 188.092 74.8738 188.657 74.5689C190.609 73.5142 192.022 71.5149 192.365 69.3224" stroke="white" stroke-width="0.510638" stroke-miterlimit="0" stroke-linecap="round" stroke-linejoin="round"/>
<path d="M193.462 76.0354C194.156 75.5724 194.473 74.7099 194.578 73.8825C194.682 73.0552 194.618 72.211 194.758 71.3889C195.004 69.9453 195.853 68.6873 196.681 67.4796L198.648 64.6125" stroke="white" stroke-width="0.510638" stroke-miterlimit="0" stroke-linecap="round" stroke-linejoin="round"/>
<path d="M156.466 133.012C156.4 133.159 156.146 132.995 156.197 132.841C156.249 132.687 156.434 132.631 156.594 132.606C158.057 132.382 159.553 133.015 160.664 133.993C161.776 134.97 162.558 136.263 163.258 137.568C163.675 138.345 164.072 139.144 164.276 140.002C164.885 142.558 163.607 145.337 161.503 146.909C159.399 148.481 156.617 148.953 154.01 148.634" stroke="white" stroke-width="0.510638" stroke-miterlimit="0" stroke-linecap="round" stroke-linejoin="round"/>
<path d="M151.098 128.62C147.85 123.94 146.363 119.857 145.607 116.957C145.219 115.471 144.585 111.072 140.795 103.347C140.475 102.694 140.125 102.025 139.551 101.58C138.842 101.029 137.892 100.901 136.994 100.915C133.993 100.962 131.047 102.45 129.229 104.838C127.916 106.562 127.133 108.747 125.398 110.045C123.506 111.46 120.926 111.49 118.785 112.488C116.327 113.633 114.558 116.136 114.298 118.835C114.038 121.534 115.298 124.329 117.492 125.922C118.522 126.669 119.748 127.178 120.586 128.136C123.464 131.425 119.866 136.951 121.872 140.835C123.61 144.198 128.511 144.489 130.938 147.393C132.569 149.346 132.769 152.086 133.721 154.445C134.452 156.257 135.64 157.862 136.322 159.693C139.031 166.954 133.167 174.922 134.469 182.562C134.627 183.49 135.055 184.561 135.98 184.736C136.559 184.845 137.129 184.553 137.645 184.27C141.818 181.981 146.39 179.196 147.542 174.578C147.786 173.601 147.862 172.574 148.261 171.65C149.431 168.948 153.189 167.401 152.993 164.464C152.947 163.77 152.664 163.058 152.892 162.4C153.216 161.466 154.156 161.074 154.498 160.877C155.565 160.263 156.651 158.499 156.618 153.362" stroke="white" stroke-width="0.510638" stroke-miterlimit="0" stroke-linecap="round" stroke-linejoin="round"/>
<path d="M151.814 126.24C150.71 122.916 149.591 119.458 150.013 115.982C150.338 113.307 151.556 110.826 152.172 108.203C153.119 104.164 152.612 99.9232 153.208 95.8175C153.804 91.7121 156.009 87.3356 160.009 86.2374C164.495 85.0059 168.792 88.3164 173.109 90.0451C180.005 92.8064 188.557 91.8223 194.099 96.7683C196.293 98.7269 197.724 101.412 199.851 103.444C201.939 105.439 204.663 106.77 206.4 109.077C208.645 112.058 208.839 116.107 210.563 119.417C211.395 121.016 212.57 122.412 213.47 123.975C216.118 128.571 216.104 134.584 213.435 139.168C210.765 143.753 205.543 146.732 200.238 146.698" stroke="white" stroke-width="0.510638" stroke-miterlimit="0" stroke-linecap="round" stroke-linejoin="round"/>
<path d="M156.51 153.229C154.307 149.162 148.752 147.486 147.261 143.108C145.722 138.59 149.308 134.122 150.802 129.59C151.161 128.502 151.403 127.369 151.895 126.334C152.843 124.336 154.623 122.881 156.346 121.496L166.284 113.51C170.291 110.29 174.763 106.902 179.903 107.009C177.103 108.396 175.377 111.303 174.293 114.233C173.208 117.163 172.599 120.276 171.219 123.079C168.849 127.892 164.164 131.499 158.904 132.558C156.957 132.95 154.817 133.067 153.299 134.347C152.175 135.296 151.599 136.723 150.801 137.959C150.004 139.195 148.733 140.359 147.269 140.213" stroke="white" stroke-width="0.510638" stroke-miterlimit="0" stroke-linecap="round" stroke-linejoin="round"/>
<path d="M176.298 107.312C178.915 106.525 181.935 107.279 183.876 109.202C185.335 110.647 186.164 112.627 187.592 114.103C189.394 115.967 191.951 116.841 194.303 117.932C196.654 119.022 199.053 120.59 199.847 123.058C200.802 126.028 199.135 129.115 198.271 132.113C197.08 136.244 197.458 140.806 199.311 144.684C200.131 146.402 201.234 148.002 201.768 149.829C202.427 152.079 202.168 154.505 201.577 156.774C200.108 162.419 196.561 167.498 191.767 170.822C186.827 174.246 180.33 176.181 177.56 181.516" stroke="white" stroke-width="0.510638" stroke-miterlimit="0" stroke-linecap="round" stroke-linejoin="round"/>
<path d="M148.824 145.737C150.911 147.231 152.751 148.113 154.01 148.634C157.951 150.265 159.889 149.889 165.129 151.73C167.907 152.706 169.229 153.258 170.111 154.114C172.729 156.652 172.53 161.166 175.152 163.701C176.309 164.82 177.919 165.438 178.911 166.705C180.363 168.557 180.076 171.232 179.307 173.455C178.539 175.679 177.354 177.814 177.205 180.162C177.03 182.939 178.223 186.137 176.433 188.267C175.748 181.964 171.797 176.107 166.21 173.111C163.966 171.907 161.278 170.942 160.216 168.628C159.148 166.301 160.186 163.62 160.521 161.083C160.856 158.546 159.711 155.218 157.152 155.222" stroke="white" stroke-width="0.510638" stroke-miterlimit="0" stroke-linecap="round" stroke-linejoin="round"/>
<path d="M164.8 148.439C166.347 147.802 168.152 148.391 169.519 149.356C170.885 150.321 171.969 151.632 173.272 152.682C176.479 155.267 181.028 156.082 184.933 154.77" stroke="white" stroke-width="0.510638" stroke-miterlimit="0" stroke-linecap="round" stroke-linejoin="round"/>
<path d="M146.871 132.065C145.494 132.323 144.307 131.112 143.521 129.953C142.099 127.852 141.023 125.537 140.336 123.095C139.788 121.145 139.483 119.103 138.587 117.286C137.691 115.468 136.017 113.854 133.993 113.759" stroke="white" stroke-width="0.510638" stroke-miterlimit="0" stroke-linecap="round" stroke-linejoin="round"/>
<path d="M146.734 146.277C146.107 147.76 147.008 149.438 148.055 150.661C149.102 151.884 150.382 153.059 150.674 154.643C150.906 155.894 150.466 157.161 150.033 158.358L146.931 166.927" stroke="white" stroke-width="0.510638" stroke-miterlimit="0" stroke-linecap="round" stroke-linejoin="round"/>
<path d="M154.197 120.315C152.828 118.975 152.981 116.682 153.789 114.945C154.595 113.208 155.923 111.754 156.742 110.023C157.884 107.61 157.945 104.71 156.905 102.251" stroke="white" stroke-width="0.510638" stroke-miterlimit="0" stroke-linecap="round" stroke-linejoin="round"/>
<path d="M158.132 152.584C159.911 154.24 162.688 153.996 164.989 154.782C166.902 155.435 168.533 156.875 169.417 158.693" stroke="white" stroke-width="0.510638" stroke-miterlimit="0" stroke-linecap="round" stroke-linejoin="round"/>
<path d="M151.52 133.279C152.4 131.888 153.471 130.629 154.702 129.537C155.263 129.039 155.884 128.564 156.616 128.407C157.455 128.227 158.316 128.485 159.162 128.631C162.085 129.134 165.222 128.198 167.392 126.176" stroke="white" stroke-width="0.510638" stroke-miterlimit="0" stroke-linecap="round" stroke-linejoin="round"/>
<path d="M163.004 134.14C164.116 134.226 165.161 133.581 165.954 132.797C166.747 132.014 167.377 131.073 168.202 130.324C169.653 129.009 171.584 128.388 173.452 127.802L177.887 126.411" stroke="white" stroke-width="0.510638" stroke-miterlimit="0" stroke-linecap="round" stroke-linejoin="round"/>
</svg>
