<svg width="343" height="54" viewBox="0 0 343 54" fill="none" xmlns="http://www.w3.org/2000/svg">
<path fill-rule="evenodd" clip-rule="evenodd" d="M44 16C37.9225 16 33 20.8986 33 26.9465C33 31.7904 36.1487 35.8816 40.5212 37.332C41.0712 37.4278 41.2775 37.0994 41.2775 36.8121C41.2775 36.5521 41.2638 35.6901 41.2638 34.7733C38.5 35.2796 37.785 34.1028 37.565 33.4871C37.4412 33.1724 36.905 32.2009 36.4375 31.9409C36.0525 31.7356 35.5025 31.2293 36.4238 31.2157C37.29 31.202 37.9088 32.0093 38.115 32.3377C39.105 33.9933 40.6863 33.5281 41.3188 33.2408C41.415 32.5292 41.7037 32.0503 42.02 31.7767C39.5725 31.503 37.015 30.5589 37.015 26.3718C37.015 25.1814 37.4413 24.1962 38.1425 23.43C38.0325 23.1563 37.6475 22.0343 38.2525 20.5291C38.2525 20.5291 39.1738 20.2418 41.2775 21.6511C42.1575 21.4048 43.0925 21.2817 44.0275 21.2817C44.9625 21.2817 45.8975 21.4048 46.7775 21.6511C48.8813 20.2281 49.8025 20.5291 49.8025 20.5291C50.4075 22.0343 50.0225 23.1563 49.9125 23.43C50.6138 24.1962 51.04 25.1677 51.04 26.3718C51.04 30.5726 48.4688 31.503 46.0213 31.7767C46.42 32.1188 46.7638 32.7755 46.7638 33.8018C46.7638 35.2659 46.75 36.4426 46.75 36.8121C46.75 37.0994 46.9563 37.4415 47.5063 37.332C51.8513 35.8816 55 31.7767 55 26.9465C55 20.8986 50.0775 16 44 16Z" fill="white"/>
<path d="M141.923 25.04C141.923 29.2 144.703 32.32 149.423 32.32C152.923 32.32 155.223 31.08 156.083 27.66V32H156.423V24.92H154.203C154.203 24.92 154.723 32 149.423 32C146.443 32 144.143 29.52 144.143 25.04C144.143 20.8 146.043 18.08 149.423 18.08C151.483 18.08 154.563 18.9 154.983 21.32L155.303 21.28C155.043 19.7 153.183 17.76 149.423 17.76C144.703 17.76 141.923 20.82 141.923 25.04ZM162.316 32V22H160.416V32H162.316ZM161.416 19.62C162.136 19.62 162.716 19.04 162.716 18.32C162.716 17.6 162.136 17.02 161.416 17.02C160.696 17.02 160.116 17.6 160.116 18.32C160.116 19.04 160.696 19.62 161.416 19.62ZM167.536 22.34L167.556 26.6C167.576 29.52 167.576 32.32 171.636 32.32C174.076 32.32 175.236 29.98 175.796 27.96L175.456 27.86C174.696 30.6 173.416 31.98 171.636 31.98C170.436 31.98 169.456 31.28 169.456 29.1V22.34H174.116V22H169.456V18.06H167.536V22H165.816V22.34H167.536ZM178.789 32H180.689C180.689 29.08 181.249 22.02 185.249 22.02C186.449 22.02 187.409 22.74 187.409 24.92V32H189.329V27.4C189.329 24.48 188.709 21.68 185.229 21.68C182.189 21.68 181.109 25.36 180.689 27.84V17.14H178.789V32ZM197.428 32.32C200.488 32.32 201.568 28.58 201.988 26.16V32H203.888L203.868 22H201.988C201.988 24.9 201.428 32.02 197.408 32.02C196.208 32.02 195.248 31.28 195.248 29.1V22H193.328V26.6C193.328 29.52 193.968 32.32 197.428 32.32ZM207.887 32H209.787V26.9C209.887 27.5 209.987 28.1 210.187 28.7C211.007 31.2 212.107 32.32 214.327 32.32C217.227 32.32 219.087 30.22 219.087 26.88C219.087 22.44 216.427 21.68 213.147 21.68C211.467 21.68 210.327 22.16 209.787 22.44C209.787 22.26 209.787 16.74 209.787 16.74H207.887V32ZM209.787 22.8C210.327 22.52 211.467 22.02 213.147 22.02C215.627 22.02 217.127 22.64 217.127 26.86C217.127 29.78 216.507 31.98 214.347 31.98C212.567 31.98 211.267 31.22 210.507 28.48C209.927 26.48 209.807 24.78 209.787 22.8Z" fill="white"/>
<path d="M306.693 31C306.884 31 307.045 30.9386 307.177 30.8159L310.755 27.5077C310.922 27.357 311 27.1953 311 27C311 26.8047 310.922 26.6374 310.761 26.4923L307.177 23.1841C307.045 23.0614 306.884 23 306.693 23C306.311 23 306 23.2845 306 23.6416C306 23.8201 306.078 23.9819 306.215 24.1158L309.357 27.0056L306.215 29.8898C306.078 30.0181 306 30.1799 306 30.3584C306 30.7155 306.311 31 306.693 31Z" fill="white"/>
</svg>
