<svg width="343" height="54" viewBox="0 0 343 54" fill="none" xmlns="http://www.w3.org/2000/svg">
<path d="M126.08 32V24.92H130.76V24.58H126.08V18.4H133.98V18.06H124.18V32H126.08ZM137.371 22V32H139.271C139.271 29.1 139.851 22.04 143.831 22.04C145.011 22.04 145.551 22.76 145.551 23.44C145.551 24.46 144.751 25.02 143.891 25.3L143.991 25.62C144.991 25.32 145.891 24.56 145.891 23.44C145.891 22.6 145.231 21.68 143.811 21.68C140.771 21.68 139.691 25.36 139.271 27.84V22H137.371ZM153.87 32.32C156.97 32.32 158.43 30.8 158.77 30.52L158.61 30.32C157.33 31.44 155.69 31.98 153.87 31.98C151.77 31.98 150.59 30.28 150.35 27.94H158.51C158.51 24.6 158.07 21.7 153.87 21.7C150.27 21.7 148.29 23.94 148.29 27C148.29 30.06 150.09 32.32 153.87 32.32ZM153.87 22.04C157.55 22.04 158.13 24.58 158.13 27.6H150.33C150.17 25.26 150.95 22.04 153.87 22.04ZM167.55 32.32C170.65 32.32 172.11 30.8 172.45 30.52L172.29 30.32C171.01 31.44 169.37 31.98 167.55 31.98C165.45 31.98 164.27 30.28 164.03 27.94H172.19C172.19 24.6 171.75 21.7 167.55 21.7C163.95 21.7 161.97 23.94 161.97 27C161.97 30.06 163.77 32.32 167.55 32.32ZM167.55 22.04C171.23 22.04 171.81 24.58 171.81 27.6H164.01C163.85 25.26 164.63 22.04 167.55 22.04ZM185.657 25.04C185.657 29.2 188.437 32.32 193.157 32.32C196.657 32.32 198.957 31.08 199.817 27.66V32H200.157V24.92H197.937C197.937 24.92 198.457 32 193.157 32C190.177 32 187.877 29.52 187.877 25.04C187.877 20.8 189.777 18.08 193.157 18.08C195.217 18.08 198.297 18.9 198.717 21.32L199.037 21.28C198.777 19.7 196.917 17.76 193.157 17.76C188.437 17.76 185.657 20.82 185.657 25.04ZM206.051 32V22H204.151V32H206.051ZM205.151 19.62C205.871 19.62 206.451 19.04 206.451 18.32C206.451 17.6 205.871 17.02 205.151 17.02C204.431 17.02 203.851 17.6 203.851 18.32C203.851 19.04 204.431 19.62 205.151 19.62ZM214.71 32.32C216.93 32.32 218.01 31.22 218.85 28.7C219.05 28.12 219.15 27.5 219.25 26.9V32H221.15V16.74H219.25V22.44C218.71 22.18 217.57 21.68 215.89 21.68C212.61 21.68 209.95 22.44 209.95 26.88C209.95 30.22 211.83 32.32 214.71 32.32ZM211.91 26.86C211.91 22.64 213.41 22.02 215.89 22.02C217.57 22.02 218.71 22.54 219.25 22.8C219.23 24.78 219.07 26.5 218.51 28.5C217.75 31.24 216.47 31.98 214.69 31.98C212.53 31.98 211.91 29.78 211.91 26.86ZM230.421 32.32C233.521 32.32 234.981 30.8 235.321 30.52L235.161 30.32C233.881 31.44 232.241 31.98 230.421 31.98C228.321 31.98 227.141 30.28 226.901 27.94H235.061C235.061 24.6 234.621 21.7 230.421 21.7C226.821 21.7 224.841 23.94 224.841 27C224.841 30.06 226.641 32.32 230.421 32.32ZM230.421 22.04C234.101 22.04 234.681 24.58 234.681 27.6H226.881C226.721 25.26 227.501 22.04 230.421 22.04Z" fill="white"/>
<path d="M306.693 31C306.884 31 307.045 30.9386 307.177 30.8159L310.755 27.5077C310.922 27.357 311 27.1953 311 27C311 26.8047 310.922 26.6374 310.761 26.4923L307.177 23.1841C307.045 23.0614 306.884 23 306.693 23C306.311 23 306 23.2845 306 23.6416C306 23.8201 306.078 23.9819 306.215 24.1158L309.357 27.0056L306.215 29.8898C306.078 30.0181 306 30.1799 306 30.3584C306 30.7155 306.311 31 306.693 31Z" fill="white"/>
<circle cx="44" cy="27" r="11" fill="#FBBC04"/>
</svg>
