<svg width="277" height="20" viewBox="0 0 277 20" fill="none" xmlns="http://www.w3.org/2000/svg">
<path d="M272.693 15C272.884 15 273.045 14.9386 273.177 14.8159L276.755 11.5077C276.922 11.357 277 11.1953 277 11C277 10.8047 276.922 10.6374 276.761 10.4923L273.177 7.1841C273.045 7.06137 272.884 7 272.693 7C272.311 7 272 7.28452 272 7.64156C272 7.82008 272.078 7.98187 272.215 8.11576L275.357 11.0056L272.215 13.8898C272.078 14.0181 272 14.1799 272 14.3584C272 14.7155 272.311 15 272.693 15Z" fill="white"/>
<path d="M1.5 19H5V10.7596L0 7.1242V17.5458C0 18.3505 0.6725 19 1.5 19Z" fill="#4285F4"/>
<path d="M17 19H20.5C21.33 19 22 18.348 22 17.5458V7.1242L17 10.7596" fill="#34A853"/>
<path d="M17 4.45831V10.7596L22 7.1242V5.18539C22 3.38706 19.8825 2.36186 18.4 3.44038" fill="#FBBC04"/>
<path d="M5 10.7596L5 4.4582L11 8.82074L17 4.45831V10.7596L11 15.1222" fill="#EA4335"/>
<path d="M0 5.18539V7.1242L5 10.7596L5 4.4582L3.6 3.44038C2.115 2.36186 0 3.38706 0 5.18539Z" fill="#C5221F"/>
<path d="M47.0789 14H48.4089C48.4089 11.956 48.8009 7.028 51.6009 7.028C52.4409 7.028 53.1129 7.518 53.1129 9.044V14H54.4569V10.78C54.4569 8.736 54.0229 6.776 51.5869 6.776C49.4589 6.776 48.7029 9.352 48.4089 11.088V7H47.0789V14ZM57.6463 10.5C57.6463 12.95 59.4523 14.224 61.7343 14.224C64.0303 14.224 65.8223 12.95 65.8223 10.5C65.8223 8.05 64.0303 6.776 61.7343 6.776C59.4523 6.776 57.6463 8.05 57.6463 10.5ZM61.7343 7C63.4843 7 64.4503 8.078 64.4503 10.5C64.4503 12.894 63.5963 14 61.7343 14C59.8443 14 59.0183 12.894 59.0183 10.5C59.0183 8.078 60.0123 7 61.7343 7ZM69.0164 14H70.3464C70.3464 11.956 70.7384 7.028 73.5384 7.028C74.3784 7.028 75.0504 7.518 75.0504 9.044V14H76.3944V10.78C76.3944 8.736 75.9604 6.776 73.5244 6.776C71.3964 6.776 70.6404 9.352 70.3464 11.088V7H69.0164V14ZM82.5518 14.21C84.8478 14.21 85.4358 12.362 85.7438 10.486V14H87.0598V9.604C87.0598 7.182 85.6318 6.804 83.8538 6.804C81.4038 6.804 80.6198 7.448 80.0738 8.386L81.4038 9.114C80.1578 9.45 79.5838 10.388 79.5838 11.452C79.5838 14.028 81.4178 14.21 82.5518 14.21ZM82.5378 9.198H85.7018C85.6458 9.982 85.4778 10.808 85.2678 11.578C84.7358 13.496 83.7838 14 82.5378 14C81.6978 14 80.9558 13.426 80.9558 11.592C80.9558 9.842 81.6978 9.198 82.5378 9.198ZM81.6418 9.044C81.7678 7.91 82.3278 6.986 83.8538 6.986C85.6178 6.986 85.7298 7.546 85.7298 8.96H82.5378C82.1738 8.96 81.7678 9.002 81.6418 9.044ZM90.0417 13.314C90.0417 13.818 90.4477 14.224 90.9517 14.224C91.4557 14.224 91.8617 13.818 91.8617 13.314C91.8617 12.81 91.4557 12.39 90.9517 12.39C90.4477 12.39 90.0417 12.81 90.0417 13.314ZM94.827 14H96.157V10.43C96.227 10.85 96.297 11.27 96.437 11.69C97.011 13.44 97.781 14.224 99.335 14.224C101.365 14.224 102.667 12.754 102.667 10.416C102.667 7.308 100.805 6.776 98.509 6.776C97.333 6.776 96.535 7.112 96.157 7.308C96.157 7.182 96.157 3.318 96.157 3.318H94.827V14ZM96.157 7.56C96.535 7.364 97.333 7.014 98.509 7.014C100.245 7.014 101.295 7.448 101.295 10.402C101.295 12.446 100.861 13.986 99.349 13.986C98.103 13.986 97.193 13.454 96.661 11.536C96.255 10.136 96.171 8.946 96.157 7.56ZM105.85 3.598V14H107.18V3.598H105.85ZM110.375 10.5C110.375 12.95 112.181 14.224 114.463 14.224C116.759 14.224 118.551 12.95 118.551 10.5C118.551 8.05 116.759 6.776 114.463 6.776C112.181 6.776 110.375 8.05 110.375 10.5ZM114.463 7C116.213 7 117.179 8.078 117.179 10.5C117.179 12.894 116.325 14 114.463 14C112.573 14 111.747 12.894 111.747 10.5C111.747 8.078 112.741 7 114.463 7ZM123.271 13.72L122.011 14.532C122.571 15.862 123.565 16.828 125.707 16.828C128.171 16.828 129.375 15.89 129.375 13.23V7H128.045V10.542C127.975 10.122 127.905 9.688 127.765 9.282C127.191 7.518 126.421 6.762 124.867 6.762C122.837 6.762 121.535 8.022 121.535 10.36C121.535 12.236 122.221 13.23 123.271 13.72ZM122.907 10.36C122.907 8.036 123.341 7 124.853 7C126.099 7 127.009 7.546 127.541 9.408C127.961 10.794 128.031 12.04 128.045 13.412C127.667 13.608 126.869 13.944 125.693 13.944C124.335 13.944 122.907 13.314 122.907 10.36ZM125.693 14.154C126.855 14.154 127.653 13.86 128.031 13.678C128.031 15.764 127.513 16.604 125.707 16.604C124.265 16.604 123.635 14.952 123.537 13.846C124.167 14.07 124.909 14.154 125.693 14.154ZM134.294 13.72L133.034 14.532C133.594 15.862 134.588 16.828 136.73 16.828C139.194 16.828 140.398 15.89 140.398 13.23V7H139.068V10.542C138.998 10.122 138.928 9.688 138.788 9.282C138.214 7.518 137.444 6.762 135.89 6.762C133.86 6.762 132.558 8.022 132.558 10.36C132.558 12.236 133.244 13.23 134.294 13.72ZM133.93 10.36C133.93 8.036 134.364 7 135.876 7C137.122 7 138.032 7.546 138.564 9.408C138.984 10.794 139.054 12.04 139.068 13.412C138.69 13.608 137.892 13.944 136.716 13.944C135.358 13.944 133.93 13.314 133.93 10.36ZM136.716 14.154C137.878 14.154 138.676 13.86 139.054 13.678C139.054 15.764 138.536 16.604 136.73 16.604C135.288 16.604 134.658 14.952 134.56 13.846C135.19 14.07 135.932 14.154 136.716 14.154ZM149.238 16.716C152.78 16.716 153.368 15.33 153.382 15.274L153.172 15.19C153.172 15.19 153.032 15.512 152.486 15.834C151.562 16.366 150.204 16.478 149.238 16.478C145.5 16.478 143.82 14.042 143.82 10.5C143.82 8.33 144.52 6.692 145.92 5.6C147.026 4.746 148.552 4.27 150.232 4.27C153.886 4.27 156.602 5.586 156.602 9.59C156.602 10.724 156.574 13.972 154.838 13.972C154.18 13.972 153.9 13.3 153.9 12.32V9.688C153.9 7.266 152.514 6.776 150.722 6.776C148.272 6.776 147.418 7.588 146.914 8.386L148.244 9.114C147.012 9.464 146.424 10.402 146.424 11.452C146.424 14.028 148.258 14.224 149.392 14.224C151.282 14.224 151.842 13.09 152.304 11.774C152.416 11.452 152.472 11.102 152.528 10.766V11.998C152.528 13.762 153.368 14.224 154.838 14.224C155.748 14.224 156.84 13.44 156.84 9.59C156.84 5.46 154.012 4.046 150.232 4.046C146.144 4.046 143.582 6.51 143.582 10.5C143.582 14.168 145.36 16.716 149.238 16.716ZM147.866 11.592C147.866 9.842 148.552 9.212 149.392 9.212H152.5C152.444 9.996 152.332 10.808 152.108 11.578C151.576 13.482 150.638 13.986 149.392 13.986C148.552 13.986 147.866 13.426 147.866 11.592ZM148.482 9.058C148.608 8.064 149.014 6.986 150.694 6.986C152.248 6.986 152.528 7.56 152.528 8.974H149.392C149.056 8.974 148.706 9.002 148.482 9.058ZM161.414 13.72L160.154 14.532C160.714 15.862 161.708 16.828 163.85 16.828C166.314 16.828 167.518 15.89 167.518 13.23V7H166.188V10.542C166.118 10.122 166.048 9.688 165.908 9.282C165.334 7.518 164.564 6.762 163.01 6.762C160.98 6.762 159.678 8.022 159.678 10.36C159.678 12.236 160.364 13.23 161.414 13.72ZM161.05 10.36C161.05 8.036 161.484 7 162.996 7C164.242 7 165.152 7.546 165.684 9.408C166.104 10.794 166.174 12.04 166.188 13.412C165.81 13.608 165.012 13.944 163.836 13.944C162.478 13.944 161.05 13.314 161.05 10.36ZM163.836 14.154C164.998 14.154 165.796 13.86 166.174 13.678C166.174 15.764 165.656 16.604 163.85 16.604C162.408 16.604 161.778 14.952 161.68 13.846C162.31 14.07 163.052 14.154 163.836 14.154ZM172.241 14C172.241 11.97 172.619 7.014 175.433 7.014C176.273 7.014 176.945 7.518 176.945 9.044V14H178.289C178.289 11.97 178.625 7.014 181.467 7.014C182.307 7.014 182.993 7.518 182.993 9.044V14H184.337V10.78C184.337 8.736 183.889 6.79 181.467 6.79C180.725 6.79 180.081 7.098 179.563 7.714C178.947 8.456 178.443 9.716 178.289 10.794C178.289 10.794 178.275 10.346 178.261 9.87C178.205 8.092 177.351 6.79 175.419 6.79C174.677 6.79 174.047 7.098 173.529 7.714C172.913 8.456 172.395 9.842 172.241 10.836V7H170.911V14H172.241ZM190.489 14.21C192.785 14.21 193.373 12.362 193.681 10.486V14H194.997V9.604C194.997 7.182 193.569 6.804 191.791 6.804C189.341 6.804 188.557 7.448 188.011 8.386L189.341 9.114C188.095 9.45 187.521 10.388 187.521 11.452C187.521 14.028 189.355 14.21 190.489 14.21ZM190.475 9.198H193.639C193.583 9.982 193.415 10.808 193.205 11.578C192.673 13.496 191.721 14 190.475 14C189.635 14 188.893 13.426 188.893 11.592C188.893 9.842 189.635 9.198 190.475 9.198ZM189.579 9.044C189.705 7.91 190.265 6.986 191.791 6.986C193.555 6.986 193.667 7.546 193.667 8.96H190.475C190.111 8.96 189.705 9.002 189.579 9.044ZM199.799 14V7H198.469V14H199.799ZM199.169 5.334C199.673 5.334 200.079 4.928 200.079 4.424C200.079 3.92 199.673 3.514 199.169 3.514C198.665 3.514 198.259 3.92 198.259 4.424C198.259 4.928 198.665 5.334 199.169 5.334ZM203.339 3.598V14H204.669V3.598H203.339ZM207.653 13.314C207.653 13.818 208.059 14.224 208.563 14.224C209.067 14.224 209.473 13.818 209.473 13.314C209.473 12.81 209.067 12.39 208.563 12.39C208.059 12.39 207.653 12.81 207.653 13.314ZM216.134 14.224C218.304 14.224 219.326 13.16 219.564 12.964L219.452 12.824C218.556 13.608 217.408 13.986 216.134 13.986C214.482 13.986 213.642 12.474 213.642 10.5C213.642 8.176 214.79 7.028 216.134 7.028C218.024 7.028 218.766 7.84 218.906 8.75L219.144 8.694C218.99 7.672 218.066 6.79 216.134 6.79C213.614 6.79 212.228 8.358 212.228 10.5C212.228 12.642 213.488 14.224 216.134 14.224ZM222.131 10.5C222.131 12.95 223.937 14.224 226.219 14.224C228.515 14.224 230.307 12.95 230.307 10.5C230.307 8.05 228.515 6.776 226.219 6.776C223.937 6.776 222.131 8.05 222.131 10.5ZM226.219 7C227.969 7 228.935 8.078 228.935 10.5C228.935 12.894 228.081 14 226.219 14C224.329 14 223.503 12.894 223.503 10.5C223.503 8.078 224.497 7 226.219 7ZM234.831 14C234.831 11.97 235.209 7.014 238.023 7.014C238.863 7.014 239.535 7.518 239.535 9.044V14H240.879C240.879 11.97 241.215 7.014 244.057 7.014C244.897 7.014 245.583 7.518 245.583 9.044V14H246.927V10.78C246.927 8.736 246.479 6.79 244.057 6.79C243.315 6.79 242.671 7.098 242.153 7.714C241.537 8.456 241.033 9.716 240.879 10.794C240.879 10.794 240.865 10.346 240.851 9.87C240.795 8.092 239.941 6.79 238.009 6.79C237.267 6.79 236.637 7.098 236.119 7.714C235.503 8.456 234.985 9.842 234.831 10.836V7H233.501V14H234.831Z" fill="white"/>
</svg>
