<svg width="343" height="54" viewBox="0 0 343 54" fill="none" xmlns="http://www.w3.org/2000/svg">
<path d="M41.7135 14.088C37.4417 14.5762 33.185 18.1142 33.0093 23.168C32.8988 26.2538 33.7547 28.5688 36.6235 29.2188C37.8684 26.9707 36.2219 26.4748 35.9659 24.8484C34.9143 18.1835 43.4755 13.6384 47.9556 18.2914C51.0553 21.5134 49.0148 31.4259 44.0151 30.3956C39.2263 29.4115 46.3593 21.5211 42.5368 19.9718C39.4296 18.7128 37.7781 23.8232 39.2513 26.3617C38.388 30.727 36.5281 34.8405 37.2811 40.3158C39.7232 38.5018 40.5464 35.0281 41.2216 31.4053C42.4489 32.1684 43.104 32.9623 44.6702 33.0857C50.4454 33.543 53.6706 27.1839 52.8825 21.3181C52.1822 16.1178 47.1123 13.4714 41.7135 14.088Z" fill="white"/>
<path d="M126.434 18.06V32H128.334V27.18H131.694C134.974 27.18 137.814 26.46 137.814 22.34C137.814 19 135.294 17.76 132.414 17.76C130.774 17.76 129.554 18.34 128.734 20.9C128.514 21.48 128.434 22.06 128.334 22.66V18.06H126.434ZM129.034 21.1C129.754 18.44 131.194 18.1 132.414 18.1C134.594 18.1 135.854 19.02 135.854 22.34C135.854 26.56 133.634 26.84 131.694 26.84H128.334C128.334 26.84 128.154 24.16 129.034 21.1ZM143.52 32V22H141.62V32H143.52ZM142.62 19.62C143.34 19.62 143.92 19.04 143.92 18.32C143.92 17.6 143.34 17.02 142.62 17.02C141.9 17.02 141.32 17.6 141.32 18.32C141.32 19.04 141.9 19.62 142.62 19.62ZM147.719 32H149.619C149.619 29.08 150.179 22.04 154.179 22.04C155.379 22.04 156.339 22.74 156.339 24.92V32H158.259V27.4C158.259 24.48 157.639 21.68 154.159 21.68C151.119 21.68 150.039 25.36 149.619 27.84V22H147.719V32ZM162.672 22.34L162.692 26.6C162.712 29.52 162.712 32.32 166.772 32.32C169.212 32.32 170.372 29.98 170.932 27.96L170.592 27.86C169.832 30.6 168.552 31.98 166.772 31.98C165.572 31.98 164.592 31.28 164.592 29.1V22.34H169.252V22H164.592V18.06H162.672V22H160.952V22.34H162.672ZM177.897 32.32C180.997 32.32 182.457 30.8 182.797 30.52L182.637 30.32C181.357 31.44 179.717 31.98 177.897 31.98C175.797 31.98 174.617 30.28 174.377 27.94H182.537C182.537 24.6 182.097 21.7 177.897 21.7C174.297 21.7 172.317 23.94 172.317 27C172.317 30.06 174.117 32.32 177.897 32.32ZM177.897 22.04C181.577 22.04 182.157 24.58 182.157 27.6H174.357C174.197 25.26 174.977 22.04 177.897 22.04ZM186.297 22V32H188.197C188.197 29.1 188.777 22.04 192.757 22.04C193.937 22.04 194.477 22.76 194.477 23.44C194.477 24.46 193.677 25.02 192.817 25.3L192.917 25.62C193.917 25.32 194.817 24.56 194.817 23.44C194.817 22.6 194.157 21.68 192.737 21.68C189.697 21.68 188.617 25.36 188.197 27.84V22H186.297ZM202.796 32.32C205.896 32.32 207.356 30.8 207.696 30.52L207.536 30.32C206.256 31.44 204.616 31.98 202.796 31.98C200.696 31.98 199.516 30.28 199.276 27.94H207.436C207.436 24.6 206.996 21.7 202.796 21.7C199.196 21.7 197.216 23.94 197.216 27C197.216 30.06 199.016 32.32 202.796 32.32ZM202.796 22.04C206.476 22.04 207.056 24.58 207.056 27.6H199.256C199.096 25.26 199.876 22.04 202.796 22.04ZM218.075 26.18L219.475 25.98C219.475 23.46 218.275 21.74 215.075 21.74C212.635 21.74 211.375 22.74 211.375 24.52C211.375 26.32 212.675 26.98 215.535 27.44C217.835 27.82 219.115 28.32 219.115 30.1C219.115 31.02 218.775 31.96 215.995 31.96C213.355 31.96 212.915 31.1 212.915 28.52L210.995 28.8C210.995 31.24 212.455 32.28 215.735 32.28C218.435 32.28 220.295 31.58 220.295 29.16C220.295 27.62 219.515 26.68 218.075 26.18ZM215.535 25.62C213.515 25.28 212.295 24.96 212.295 23.7C212.295 22.74 213.035 22.04 214.875 22.04C217.635 22.04 217.675 23.64 217.675 26.06L217.355 25.98C216.995 25.88 216.595 25.78 215.535 25.62ZM224.313 22.34L224.333 26.6C224.353 29.52 224.353 32.32 228.413 32.32C230.853 32.32 232.013 29.98 232.573 27.96L232.233 27.86C231.473 30.6 230.193 31.98 228.413 31.98C227.213 31.98 226.233 31.28 226.233 29.1V22.34H230.893V22H226.233V18.06H224.313V22H222.593V22.34H224.313Z" fill="white"/>
<path d="M305.693 31C305.884 31 306.045 30.9386 306.177 30.8159L309.755 27.5077C309.922 27.357 310 27.1953 310 27C310 26.8047 309.922 26.6374 309.761 26.4923L306.177 23.1841C306.045 23.0614 305.884 23 305.693 23C305.311 23 305 23.2845 305 23.6416C305 23.8201 305.078 23.9819 305.215 24.1158L308.357 27.0056L305.215 29.8898C305.078 30.0181 305 30.1799 305 30.3584C305 30.7155 305.311 31 305.693 31Z" fill="white"/>
</svg>
