<svg width="22" height="22" viewBox="0 0 22 22" fill="none" xmlns="http://www.w3.org/2000/svg">
<path d="M0 22L1.57845 16.1362C0.30547 13.8519 -0.098969 11.1864 0.439349 8.62866C0.977668 6.07097 2.42263 3.79269 4.50909 2.2119C6.59555 0.631107 9.18355 -0.146167 11.7982 0.0227092C14.4128 0.191585 16.8787 1.29528 18.7434 3.13127C20.608 4.96726 21.7463 7.41239 21.9495 10.018C22.1526 12.6236 21.4069 15.2148 19.8492 17.3162C18.2915 19.4177 16.0263 20.8883 13.4693 21.4583C10.9122 22.0283 8.23488 21.6594 5.92851 20.4194L0 22ZM6.21437 18.2251L6.58102 18.442C8.25157 19.4297 10.2027 19.8384 12.1305 19.6045C14.0582 19.3705 15.8542 18.5071 17.2387 17.1487C18.6231 15.7904 19.5181 14.0133 19.7843 12.0946C20.0505 10.1759 19.6728 8.22321 18.7102 6.5409C17.7477 4.85859 16.2542 3.54114 14.4626 2.79385C12.671 2.04657 10.6818 1.91143 8.80517 2.40949C6.92851 2.90755 5.26973 4.01084 4.08734 5.54742C2.90495 7.084 2.26536 8.96756 2.26824 10.9046C2.26667 12.5107 2.71199 14.0857 3.55462 15.4543L3.78455 15.8324L2.90211 19.1053L6.21437 18.2251Z" fill="#00D95F"/>
<path fill-rule="evenodd" clip-rule="evenodd" d="M15.1132 12.4103C14.8982 12.2373 14.6466 12.1156 14.3773 12.0544C14.1081 11.9932 13.8284 11.994 13.5596 12.0569C13.1556 12.2243 12.8946 12.8566 12.6336 13.1727C12.5786 13.2485 12.4977 13.3016 12.4062 13.3222C12.3147 13.3427 12.2188 13.3292 12.1365 13.2843C10.6577 12.7065 9.41812 11.6471 8.61916 10.278C8.55101 10.1925 8.51876 10.084 8.52919 9.97536C8.53962 9.86668 8.59192 9.76627 8.67508 9.69529C8.96619 9.40784 9.17992 9.05181 9.29652 8.66013C9.32241 8.2281 9.22318 7.79775 9.01066 7.42042C8.84637 6.8914 8.53369 6.42036 8.10958 6.06293C7.89083 5.9648 7.64829 5.9319 7.41122 5.96819C7.17414 6.00449 6.95266 6.10843 6.77349 6.26748C6.46244 6.53516 6.21555 6.86903 6.051 7.24449C5.88645 7.61996 5.80843 8.02746 5.82269 8.43698C5.82365 8.66695 5.85287 8.89594 5.90969 9.11882C6.05399 9.65432 6.27591 10.1659 6.56841 10.6375C6.77945 10.9987 7.00971 11.3484 7.25821 11.685C8.06579 12.7908 9.08095 13.7297 10.2473 14.4496C10.8326 14.8154 11.4582 15.1128 12.1116 15.336C12.7904 15.6429 13.5399 15.7607 14.2804 15.6769C14.7024 15.6132 15.1021 15.447 15.4446 15.193C15.787 14.939 16.0616 14.605 16.2442 14.2202C16.3515 13.9878 16.384 13.728 16.3374 13.4764C16.2255 12.9619 15.5357 12.6582 15.1132 12.4103Z" fill="#00D95F"/>
</svg>
