<svg width="343" height="60" viewBox="0 0 343 60" fill="none" xmlns="http://www.w3.org/2000/svg">
<path d="M131.909 21.06L138.109 31.18H136.989C135.809 31.18 134.909 32.1 134.969 33.26C135.029 34.48 135.909 35.32 137.089 35.38C137.989 35.42 138.889 34.86 139.169 34.1L143.709 21.06H143.349L139.989 30.74L134.109 21.06H131.909ZM136.989 31.52H139.709L138.849 34C138.649 34.62 137.829 35.1 137.049 35.04C136.169 34.98 135.369 34.16 135.309 33.26C135.249 32.38 136.089 31.52 136.989 31.52ZM147.016 30C147.016 33.5 149.596 35.32 152.856 35.32C156.136 35.32 158.696 33.5 158.696 30C158.696 26.5 156.136 24.68 152.856 24.68C149.596 24.68 147.016 26.5 147.016 30ZM152.856 25C155.356 25 156.736 26.54 156.736 30C156.736 33.42 155.516 35 152.856 35C150.156 35 148.976 33.42 148.976 30C148.976 26.54 150.396 25 152.856 25ZM166.502 35.32C169.562 35.32 170.642 31.58 171.062 29.16V35H172.962L172.942 25H171.062C171.062 27.9 170.502 35.02 166.482 35.02C165.282 35.02 164.322 34.28 164.322 32.1V25H162.402V29.6C162.402 32.52 163.042 35.32 166.502 35.32ZM181.721 21.4V35H183.621V21.4H189.361V21.06H175.961V21.4H181.721ZM194.663 35.32C197.723 35.32 198.803 31.58 199.223 29.16V35H201.123L201.103 25H199.223C199.223 27.9 198.663 35.02 194.643 35.02C193.443 35.02 192.483 34.28 192.483 32.1V25H190.563V29.6C190.563 32.52 191.203 35.32 194.663 35.32ZM205.121 35H207.021V29.9C207.121 30.5 207.221 31.1 207.421 31.7C208.241 34.2 209.341 35.32 211.561 35.32C214.461 35.32 216.321 33.22 216.321 29.88C216.321 25.44 213.661 24.68 210.381 24.68C208.701 24.68 207.561 25.16 207.021 25.44C207.021 25.26 207.021 19.74 207.021 19.74H205.121V35ZM207.021 25.8C207.561 25.52 208.701 25.02 210.381 25.02C212.861 25.02 214.361 25.64 214.361 29.86C214.361 32.78 213.741 34.98 211.581 34.98C209.801 34.98 208.501 34.22 207.741 31.48C207.161 29.48 207.041 27.78 207.021 25.8ZM225.292 35.32C228.392 35.32 229.852 33.8 230.192 33.52L230.032 33.32C228.752 34.44 227.112 34.98 225.292 34.98C223.192 34.98 222.012 33.28 221.772 30.94H229.932C229.932 27.6 229.492 24.7 225.292 24.7C221.692 24.7 219.712 26.94 219.712 30C219.712 33.06 221.512 35.32 225.292 35.32ZM225.292 25.04C228.972 25.04 229.552 27.58 229.552 30.6H221.752C221.592 28.26 222.372 25.04 225.292 25.04Z" fill="white"/>
<ellipse cx="44" cy="30.5" rx="8" ry="7.5" fill="white"/>
<path fill-rule="evenodd" clip-rule="evenodd" d="M52.5956 23.4596C53.5441 23.7158 54.2895 24.4632 54.5415 25.4105C55 27.1298 55 30.7193 55 30.7193C55 30.7193 55 34.3088 54.5415 36.0281C54.286 36.9789 53.5406 37.7263 52.5956 37.9789C50.8807 38.4386 44 38.4386 44 38.4386C44 38.4386 37.1228 38.4386 35.4044 37.9789C34.4559 37.7228 33.7105 36.9754 33.4585 36.0281C33 34.3088 33 30.7193 33 30.7193C33 30.7193 33 27.1298 33.4585 25.4105C33.714 24.4596 34.4594 23.7123 35.4044 23.4596C37.1228 23 44 23 44 23C44 23 50.8807 23 52.5956 23.4596ZM47.5173 30.7193L41.8021 34.0281V27.4105L47.5173 30.7193Z" fill="#FF3000"/>
<path d="M307.693 34C307.884 34 308.045 33.9386 308.177 33.8159L311.755 30.5077C311.922 30.357 312 30.1953 312 30C312 29.8047 311.922 29.6374 311.761 29.4923L308.177 26.1841C308.045 26.0614 307.884 26 307.693 26C307.311 26 307 26.2845 307 26.6416C307 26.8201 307.078 26.9819 307.215 27.1158L310.357 30.0056L307.215 32.8898C307.078 33.0181 307 33.1799 307 33.3584C307 33.7155 307.311 34 307.693 34Z" fill="white"/>
</svg>
