<svg width="343" height="54" viewBox="0 0 343 54" fill="none" xmlns="http://www.w3.org/2000/svg">
<path d="M100.741 21.06L106.161 35H108.221L113.021 21.06H112.661L108.021 34.56L102.781 21.06H100.741ZM119.905 35.32C123.005 35.32 124.465 33.8 124.805 33.52L124.645 33.32C123.365 34.44 121.725 34.98 119.905 34.98C117.805 34.98 116.625 33.28 116.385 30.94H124.545C124.545 27.6 124.105 24.7 119.905 24.7C116.305 24.7 114.325 26.94 114.325 30C114.325 33.06 116.125 35.32 119.905 35.32ZM119.905 25.04C123.585 25.04 124.165 27.58 124.165 30.6H116.365C116.205 28.26 116.985 25.04 119.905 25.04ZM128.305 35H130.205V29.9C130.305 30.5 130.405 31.1 130.605 31.7C131.425 34.2 132.525 35.32 134.745 35.32C137.645 35.32 139.505 33.22 139.505 29.88C139.505 25.44 136.845 24.68 133.565 24.68C131.885 24.68 130.745 25.16 130.205 25.44C130.205 25.26 130.205 19.74 130.205 19.74H128.305V35ZM130.205 25.8C130.745 25.52 131.885 25.02 133.565 25.02C136.045 25.02 137.545 25.64 137.545 29.86C137.545 32.78 136.925 34.98 134.765 34.98C132.985 34.98 131.685 34.22 130.925 31.48C130.345 29.48 130.225 27.78 130.205 25.8ZM145.195 35V25H143.295V35H145.195ZM144.295 22.62C145.015 22.62 145.595 22.04 145.595 21.32C145.595 20.6 145.015 20.02 144.295 20.02C143.575 20.02 142.995 20.6 142.995 21.32C142.995 22.04 143.575 22.62 144.295 22.62ZM149.395 35H151.295C151.295 32.08 151.855 25.04 155.855 25.04C157.055 25.04 158.015 25.74 158.015 27.92V35H159.935V30.4C159.935 27.48 159.315 24.68 155.835 24.68C152.795 24.68 151.715 28.36 151.295 30.84V25H149.395V35ZM167.874 35.3C171.154 35.3 171.994 32.66 172.434 29.98V35H174.314V28.72C174.314 25.26 172.274 24.72 169.734 24.72C166.234 24.72 165.114 25.64 164.334 26.98L166.234 28.02C164.454 28.5 163.634 29.84 163.634 31.36C163.634 35.04 166.254 35.3 167.874 35.3ZM167.854 28.14H172.374C172.294 29.26 172.054 30.44 171.754 31.54C170.994 34.28 169.634 35 167.854 35C166.654 35 165.594 34.18 165.594 31.56C165.594 29.06 166.654 28.14 167.854 28.14ZM166.574 27.92C166.754 26.3 167.554 24.98 169.734 24.98C172.254 24.98 172.414 25.78 172.414 27.8H167.854C167.334 27.8 166.754 27.86 166.574 27.92ZM178.316 25V35H180.216C180.216 32.1 180.796 25.04 184.776 25.04C185.956 25.04 186.496 25.76 186.496 26.44C186.496 27.46 185.696 28.02 184.836 28.3L184.936 28.62C185.936 28.32 186.836 27.56 186.836 26.44C186.836 25.6 186.176 24.68 184.756 24.68C181.716 24.68 180.636 28.36 180.216 30.84V25H178.316ZM200.048 25.12L202.128 25.4C202.128 23.5 202.428 21.06 204.968 21.06C206.608 21.06 207.988 22.36 207.988 25.3C207.988 28.16 206.748 28.82 204.368 29.64C201.988 30.46 200.128 31.12 200.128 35H210.448V33.1H200.668C201.188 31.1 202.628 30.6 204.468 29.96C206.808 29.16 209.948 28.28 209.948 25.3C209.948 22.32 207.748 20.8 204.968 20.8C202.528 20.8 200.048 22.04 200.048 25.12ZM217.735 35.3C221.035 35.3 224.215 34.3 224.215 29.84C224.215 26.46 221.855 24.64 218.935 24.64C216.795 24.64 215.595 25.6 214.855 27.92L215.195 22.94H223.435V21.06H214.975L214.395 29.62H214.735C215.355 27.18 215.935 24.98 218.955 24.98C221.135 24.98 222.235 26.48 222.235 29.84C222.235 34.08 220.295 34.96 217.735 34.96C216.055 34.96 214.895 34.48 214.355 34.22L214.255 34.56C214.815 34.82 216.035 35.3 217.735 35.3ZM227.318 34.02C227.318 34.74 227.898 35.32 228.618 35.32C229.338 35.32 229.918 34.74 229.918 34.02C229.918 33.3 229.338 32.7 228.618 32.7C227.898 32.7 227.318 33.3 227.318 34.02ZM232.997 28.04C232.997 33.14 236.117 35.3 239.417 35.32C242.737 35.3 245.857 33.14 245.857 28.04C245.857 23.04 242.737 20.78 239.417 20.76C236.117 20.78 232.997 23.04 232.997 28.04ZM239.417 21.04C241.817 21.04 243.917 22.34 243.917 28.04C243.917 33.78 241.817 35.04 239.417 35.04C237.037 35.04 234.957 33.82 234.957 28.04C234.957 22.34 237.037 21.04 239.417 21.04ZM249.355 31.24C249.355 34 251.755 35.32 254.615 35.32C257.455 35.32 260.055 34 260.055 31.24C260.055 28.9 258.215 27.6 255.935 27.24C257.755 26.98 259.275 26.08 259.275 24.1C259.275 21.68 256.975 20.78 254.615 20.78C252.235 20.78 249.935 21.68 249.935 24.1C249.935 26.08 251.455 26.98 253.295 27.26C251.055 27.6 249.355 28.9 249.355 31.24ZM251.315 31.24C251.315 28.32 252.515 27.44 254.615 27.44C256.775 27.44 258.095 28.32 258.095 31.24C258.095 34.14 256.775 34.98 254.615 34.98C252.515 34.98 251.315 34.14 251.315 31.24ZM251.815 24.1C251.815 21.54 252.895 21.12 254.615 21.12C256.495 21.12 257.415 21.54 257.415 24.1C257.415 26.68 256.355 27.14 254.615 27.14C252.755 27.14 251.815 26.68 251.815 24.1Z" fill="white"/>
<path d="M306.693 34C306.884 34 307.045 33.9386 307.177 33.8159L310.755 30.5077C310.922 30.357 311 30.1953 311 30C311 29.8047 310.922 29.6374 310.761 29.4923L307.177 26.1841C307.045 26.0614 306.884 26 306.693 26C306.311 26 306 26.2845 306 26.6416C306 26.8201 306.078 26.9819 306.215 27.1158L309.357 30.0056L306.215 32.8898C306.078 33.0181 306 33.1799 306 33.3584C306 33.7155 306.311 34 306.693 34Z" fill="white"/>
<circle cx="44" cy="30" r="11" fill="#44FF02"/>
</svg>
