<svg width="124" height="21" viewBox="0 0 124 21" fill="none" xmlns="http://www.w3.org/2000/svg">
<path d="M6.17625 15H8.23625L12.8763 1.52L18.1163 15H20.1763L24.9763 1.06H24.6163L19.9763 14.56L14.7363 1.06H12.6763L8.03625 14.56L2.79625 1.06H0.75625L6.17625 15ZM28.5859 15H30.4859C30.4859 12.08 31.0459 5.02 35.0459 5.02C36.2459 5.02 37.2059 5.74 37.2059 7.92V15H39.1259V10.4C39.1259 7.48 38.5059 4.68 35.0259 4.68C31.9859 4.68 30.9059 8.36 30.4859 10.84V0.139999H28.5859V15ZM47.065 15.3C50.345 15.3 51.185 12.66 51.625 9.98V15H53.505V8.72C53.505 5.26 51.465 4.72 48.925 4.72C45.425 4.72 44.305 5.64 43.525 6.98L45.425 8.02C43.645 8.5 42.825 9.84 42.825 11.36C42.825 15.04 45.445 15.3 47.065 15.3ZM47.045 8.14H51.565C51.485 9.26 51.245 10.44 50.945 11.54C50.185 14.28 48.825 15 47.045 15C45.845 15 44.785 14.18 44.785 11.56C44.785 9.06 45.845 8.14 47.045 8.14ZM45.765 7.92C45.945 6.3 46.745 4.98 48.925 4.98C51.445 4.98 51.605 5.78 51.605 7.8H47.045C46.525 7.8 45.945 7.86 45.765 7.92ZM57.9223 5.34L57.9423 9.6C57.9623 12.52 57.9623 15.32 62.0223 15.32C64.4623 15.32 65.6223 12.98 66.1823 10.96L65.8423 10.86C65.0823 13.6 63.8023 14.98 62.0223 14.98C60.8223 14.98 59.8423 14.28 59.8423 12.1V5.34H64.5023V5H59.8423V1.06H57.9223V5H56.2023V5.34H57.9223ZM75.7628 9.18L77.1628 8.98C77.1628 6.46 75.9628 4.74 72.7628 4.74C70.3228 4.74 69.0628 5.74 69.0628 7.52C69.0628 9.32 70.3628 9.98 73.2228 10.44C75.5228 10.82 76.8028 11.32 76.8028 13.1C76.8028 14.02 76.4628 14.96 73.6828 14.96C71.0428 14.96 70.6028 14.1 70.6028 11.52L68.6828 11.8C68.6828 14.24 70.1428 15.28 73.4228 15.28C76.1228 15.28 77.9828 14.58 77.9828 12.16C77.9828 10.62 77.2028 9.68 75.7628 9.18ZM73.2228 8.62C71.2028 8.28 69.9828 7.96 69.9828 6.7C69.9828 5.74 70.7228 5.04 72.5628 5.04C75.3228 5.04 75.3628 6.64 75.3628 9.06L75.0428 8.98C74.6828 8.88 74.2828 8.78 73.2228 8.62ZM81.1859 15H81.5459L83.5059 9.3H89.2059L91.4259 15H93.4659L88.0459 1.06H85.9859L81.1859 15ZM86.1859 1.5L89.0859 8.96H83.6259L86.1859 1.5ZM98.9625 20.22C98.9625 20.22 98.9625 14.72 98.9625 14.54C99.5025 14.8 100.643 15.3 102.323 15.3C105.603 15.3 108.263 14.52 108.263 10.1C108.263 6.76 106.403 4.66 103.503 4.66C101.283 4.66 100.183 5.76 99.3625 8.28C99.1625 8.86 99.0625 9.48 98.9625 10.06V5H97.0625V20.22H98.9625ZM99.6825 8.46C100.443 5.74 101.743 5 103.523 5C105.683 5 106.303 7.2 106.303 10.12C106.303 14.32 104.803 14.94 102.323 14.94C100.643 14.94 99.5025 14.44 98.9625 14.18C98.9825 12.18 99.1025 10.48 99.6825 8.46ZM113.853 20.22C113.853 20.22 113.853 14.72 113.853 14.54C114.393 14.8 115.533 15.3 117.213 15.3C120.493 15.3 123.153 14.52 123.153 10.1C123.153 6.76 121.293 4.66 118.393 4.66C116.173 4.66 115.073 5.76 114.253 8.28C114.053 8.86 113.953 9.48 113.853 10.06V5H111.953V20.22H113.853ZM114.573 8.46C115.333 5.74 116.633 5 118.413 5C120.573 5 121.193 7.2 121.193 10.12C121.193 14.32 119.693 14.94 117.213 14.94C115.533 14.94 114.393 14.44 113.853 14.18C113.873 12.18 113.993 10.48 114.573 8.46Z" fill="white"/>
</svg>
